G04 #@! TF.GenerationSoftware,KiCad,Pcbnew,(5.1.2)-2*
G04 #@! TF.CreationDate,2021-03-31T16:43:33-04:00*
G04 #@! TF.ProjectId,MicroMod_tinycar_panelized,4d696372-6f4d-46f6-945f-74696e796361,rev?*
G04 #@! TF.SameCoordinates,Original*
G04 #@! TF.FileFunction,Paste,Bot*
G04 #@! TF.FilePolarity,Positive*
%FSLAX46Y46*%
G04 Gerber Fmt 4.6, Leading zero omitted, Abs format (unit mm)*
G04 Created by KiCad (PCBNEW (5.1.2)-2) date 2021-03-31 16:43:33*
%MOMM*%
%LPD*%
G04 APERTURE LIST*
%ADD10C,0.100000*%
%ADD11R,1.200000X2.750000*%
G04 APERTURE END LIST*
D10*
G36*
X129163740Y-63369980D02*
G01*
X128863740Y-63369980D01*
X128863740Y-61619980D01*
X129163740Y-61619980D01*
X129163740Y-63369980D01*
G37*
G36*
X128163740Y-63369980D02*
G01*
X127863740Y-63369980D01*
X127863740Y-61619980D01*
X128163740Y-61619980D01*
X128163740Y-63369980D01*
G37*
G36*
X127663740Y-63369980D02*
G01*
X127363740Y-63369980D01*
X127363740Y-61619980D01*
X127663740Y-61619980D01*
X127663740Y-63369980D01*
G37*
G36*
X128663740Y-63369980D02*
G01*
X128363740Y-63369980D01*
X128363740Y-61619980D01*
X128663740Y-61619980D01*
X128663740Y-63369980D01*
G37*
G36*
X127163740Y-63369980D02*
G01*
X126863740Y-63369980D01*
X126863740Y-61619980D01*
X127163740Y-61619980D01*
X127163740Y-63369980D01*
G37*
G36*
X126163740Y-63369980D02*
G01*
X125863740Y-63369980D01*
X125863740Y-61619980D01*
X126163740Y-61619980D01*
X126163740Y-63369980D01*
G37*
G36*
X125663740Y-63369980D02*
G01*
X125363740Y-63369980D01*
X125363740Y-61619980D01*
X125663740Y-61619980D01*
X125663740Y-63369980D01*
G37*
G36*
X126663740Y-63369980D02*
G01*
X126363740Y-63369980D01*
X126363740Y-61619980D01*
X126663740Y-61619980D01*
X126663740Y-63369980D01*
G37*
G36*
X125163740Y-63369980D02*
G01*
X124863740Y-63369980D01*
X124863740Y-61619980D01*
X125163740Y-61619980D01*
X125163740Y-63369980D01*
G37*
G36*
X124163740Y-63369980D02*
G01*
X123863740Y-63369980D01*
X123863740Y-61619980D01*
X124163740Y-61619980D01*
X124163740Y-63369980D01*
G37*
G36*
X123663740Y-63369980D02*
G01*
X123363740Y-63369980D01*
X123363740Y-61619980D01*
X123663740Y-61619980D01*
X123663740Y-63369980D01*
G37*
G36*
X124663740Y-63369980D02*
G01*
X124363740Y-63369980D01*
X124363740Y-61619980D01*
X124663740Y-61619980D01*
X124663740Y-63369980D01*
G37*
G36*
X123163740Y-63369980D02*
G01*
X122863740Y-63369980D01*
X122863740Y-61619980D01*
X123163740Y-61619980D01*
X123163740Y-63369980D01*
G37*
G36*
X122163740Y-63369980D02*
G01*
X121863740Y-63369980D01*
X121863740Y-61619980D01*
X122163740Y-61619980D01*
X122163740Y-63369980D01*
G37*
G36*
X121663740Y-63369980D02*
G01*
X121363740Y-63369980D01*
X121363740Y-61619980D01*
X121663740Y-61619980D01*
X121663740Y-63369980D01*
G37*
G36*
X122663740Y-63369980D02*
G01*
X122363740Y-63369980D01*
X122363740Y-61619980D01*
X122663740Y-61619980D01*
X122663740Y-63369980D01*
G37*
G36*
X121163740Y-63369980D02*
G01*
X120863740Y-63369980D01*
X120863740Y-61619980D01*
X121163740Y-61619980D01*
X121163740Y-63369980D01*
G37*
G36*
X120163740Y-63369980D02*
G01*
X119863740Y-63369980D01*
X119863740Y-61619980D01*
X120163740Y-61619980D01*
X120163740Y-63369980D01*
G37*
G36*
X119663740Y-63369980D02*
G01*
X119363740Y-63369980D01*
X119363740Y-61619980D01*
X119663740Y-61619980D01*
X119663740Y-63369980D01*
G37*
G36*
X120663740Y-63369980D02*
G01*
X120363740Y-63369980D01*
X120363740Y-61619980D01*
X120663740Y-61619980D01*
X120663740Y-63369980D01*
G37*
G36*
X119163740Y-63369980D02*
G01*
X118863740Y-63369980D01*
X118863740Y-61619980D01*
X119163740Y-61619980D01*
X119163740Y-63369980D01*
G37*
G36*
X118663740Y-63369980D02*
G01*
X118363740Y-63369980D01*
X118363740Y-61619980D01*
X118663740Y-61619980D01*
X118663740Y-63369980D01*
G37*
G36*
X116163740Y-63369980D02*
G01*
X115863740Y-63369980D01*
X115863740Y-61619980D01*
X116163740Y-61619980D01*
X116163740Y-63369980D01*
G37*
G36*
X115663740Y-63369980D02*
G01*
X115363740Y-63369980D01*
X115363740Y-61619980D01*
X115663740Y-61619980D01*
X115663740Y-63369980D01*
G37*
G36*
X115163740Y-63369980D02*
G01*
X114863740Y-63369980D01*
X114863740Y-61619980D01*
X115163740Y-61619980D01*
X115163740Y-63369980D01*
G37*
G36*
X114163740Y-63369980D02*
G01*
X113863740Y-63369980D01*
X113863740Y-61619980D01*
X114163740Y-61619980D01*
X114163740Y-63369980D01*
G37*
G36*
X113663740Y-63369980D02*
G01*
X113363740Y-63369980D01*
X113363740Y-61619980D01*
X113663740Y-61619980D01*
X113663740Y-63369980D01*
G37*
G36*
X114663740Y-63369980D02*
G01*
X114363740Y-63369980D01*
X114363740Y-61619980D01*
X114663740Y-61619980D01*
X114663740Y-63369980D01*
G37*
G36*
X113163740Y-63369980D02*
G01*
X112863740Y-63369980D01*
X112863740Y-61619980D01*
X113163740Y-61619980D01*
X113163740Y-63369980D01*
G37*
G36*
X112163740Y-63369980D02*
G01*
X111863740Y-63369980D01*
X111863740Y-61619980D01*
X112163740Y-61619980D01*
X112163740Y-63369980D01*
G37*
G36*
X111663740Y-63369980D02*
G01*
X111363740Y-63369980D01*
X111363740Y-61619980D01*
X111663740Y-61619980D01*
X111663740Y-63369980D01*
G37*
G36*
X112663740Y-63369980D02*
G01*
X112363740Y-63369980D01*
X112363740Y-61619980D01*
X112663740Y-61619980D01*
X112663740Y-63369980D01*
G37*
G36*
X111163740Y-63369980D02*
G01*
X110863740Y-63369980D01*
X110863740Y-61619980D01*
X111163740Y-61619980D01*
X111163740Y-63369980D01*
G37*
G36*
X129413740Y-70919980D02*
G01*
X129113740Y-70919980D01*
X129113740Y-69169980D01*
X129413740Y-69169980D01*
X129413740Y-70919980D01*
G37*
G36*
X128413740Y-70919980D02*
G01*
X128113740Y-70919980D01*
X128113740Y-69169980D01*
X128413740Y-69169980D01*
X128413740Y-70919980D01*
G37*
G36*
X127913740Y-70919980D02*
G01*
X127613740Y-70919980D01*
X127613740Y-69169980D01*
X127913740Y-69169980D01*
X127913740Y-70919980D01*
G37*
G36*
X128913740Y-70919980D02*
G01*
X128613740Y-70919980D01*
X128613740Y-69169980D01*
X128913740Y-69169980D01*
X128913740Y-70919980D01*
G37*
G36*
X127413740Y-70919980D02*
G01*
X127113740Y-70919980D01*
X127113740Y-69169980D01*
X127413740Y-69169980D01*
X127413740Y-70919980D01*
G37*
G36*
X126413740Y-70919980D02*
G01*
X126113740Y-70919980D01*
X126113740Y-69169980D01*
X126413740Y-69169980D01*
X126413740Y-70919980D01*
G37*
G36*
X125913740Y-70919980D02*
G01*
X125613740Y-70919980D01*
X125613740Y-69169980D01*
X125913740Y-69169980D01*
X125913740Y-70919980D01*
G37*
G36*
X126913740Y-70919980D02*
G01*
X126613740Y-70919980D01*
X126613740Y-69169980D01*
X126913740Y-69169980D01*
X126913740Y-70919980D01*
G37*
G36*
X125413740Y-70919980D02*
G01*
X125113740Y-70919980D01*
X125113740Y-69169980D01*
X125413740Y-69169980D01*
X125413740Y-70919980D01*
G37*
G36*
X124413740Y-70919980D02*
G01*
X124113740Y-70919980D01*
X124113740Y-69169980D01*
X124413740Y-69169980D01*
X124413740Y-70919980D01*
G37*
G36*
X123913740Y-70919980D02*
G01*
X123613740Y-70919980D01*
X123613740Y-69169980D01*
X123913740Y-69169980D01*
X123913740Y-70919980D01*
G37*
G36*
X124913740Y-70919980D02*
G01*
X124613740Y-70919980D01*
X124613740Y-69169980D01*
X124913740Y-69169980D01*
X124913740Y-70919980D01*
G37*
G36*
X123413740Y-70919980D02*
G01*
X123113740Y-70919980D01*
X123113740Y-69169980D01*
X123413740Y-69169980D01*
X123413740Y-70919980D01*
G37*
G36*
X122413740Y-70919980D02*
G01*
X122113740Y-70919980D01*
X122113740Y-69169980D01*
X122413740Y-69169980D01*
X122413740Y-70919980D01*
G37*
G36*
X121913740Y-70919980D02*
G01*
X121613740Y-70919980D01*
X121613740Y-69169980D01*
X121913740Y-69169980D01*
X121913740Y-70919980D01*
G37*
G36*
X122913740Y-70919980D02*
G01*
X122613740Y-70919980D01*
X122613740Y-69169980D01*
X122913740Y-69169980D01*
X122913740Y-70919980D01*
G37*
G36*
X121413740Y-70919980D02*
G01*
X121113740Y-70919980D01*
X121113740Y-69169980D01*
X121413740Y-69169980D01*
X121413740Y-70919980D01*
G37*
G36*
X120413740Y-70919980D02*
G01*
X120113740Y-70919980D01*
X120113740Y-69169980D01*
X120413740Y-69169980D01*
X120413740Y-70919980D01*
G37*
G36*
X119913740Y-70919980D02*
G01*
X119613740Y-70919980D01*
X119613740Y-69169980D01*
X119913740Y-69169980D01*
X119913740Y-70919980D01*
G37*
G36*
X120913740Y-70919980D02*
G01*
X120613740Y-70919980D01*
X120613740Y-69169980D01*
X120913740Y-69169980D01*
X120913740Y-70919980D01*
G37*
G36*
X119413740Y-70919980D02*
G01*
X119113740Y-70919980D01*
X119113740Y-69169980D01*
X119413740Y-69169980D01*
X119413740Y-70919980D01*
G37*
G36*
X118913740Y-70919980D02*
G01*
X118613740Y-70919980D01*
X118613740Y-69169980D01*
X118913740Y-69169980D01*
X118913740Y-70919980D01*
G37*
G36*
X116413740Y-70919980D02*
G01*
X116113740Y-70919980D01*
X116113740Y-69169980D01*
X116413740Y-69169980D01*
X116413740Y-70919980D01*
G37*
G36*
X115913740Y-70919980D02*
G01*
X115613740Y-70919980D01*
X115613740Y-69169980D01*
X115913740Y-69169980D01*
X115913740Y-70919980D01*
G37*
G36*
X115413740Y-70919980D02*
G01*
X115113740Y-70919980D01*
X115113740Y-69169980D01*
X115413740Y-69169980D01*
X115413740Y-70919980D01*
G37*
G36*
X114413740Y-70919980D02*
G01*
X114113740Y-70919980D01*
X114113740Y-69169980D01*
X114413740Y-69169980D01*
X114413740Y-70919980D01*
G37*
G36*
X113913740Y-70919980D02*
G01*
X113613740Y-70919980D01*
X113613740Y-69169980D01*
X113913740Y-69169980D01*
X113913740Y-70919980D01*
G37*
G36*
X114913740Y-70919980D02*
G01*
X114613740Y-70919980D01*
X114613740Y-69169980D01*
X114913740Y-69169980D01*
X114913740Y-70919980D01*
G37*
G36*
X113413740Y-70919980D02*
G01*
X113113740Y-70919980D01*
X113113740Y-69169980D01*
X113413740Y-69169980D01*
X113413740Y-70919980D01*
G37*
G36*
X112413740Y-70919980D02*
G01*
X112113740Y-70919980D01*
X112113740Y-69169980D01*
X112413740Y-69169980D01*
X112413740Y-70919980D01*
G37*
G36*
X111913740Y-70919980D02*
G01*
X111613740Y-70919980D01*
X111613740Y-69169980D01*
X111913740Y-69169980D01*
X111913740Y-70919980D01*
G37*
G36*
X112913740Y-70919980D02*
G01*
X112613740Y-70919980D01*
X112613740Y-69169980D01*
X112913740Y-69169980D01*
X112913740Y-70919980D01*
G37*
G36*
X111413740Y-70919980D02*
G01*
X111113740Y-70919980D01*
X111113740Y-69169980D01*
X111413740Y-69169980D01*
X111413740Y-70919980D01*
G37*
G36*
X110913740Y-70919980D02*
G01*
X110613740Y-70919980D01*
X110613740Y-69169980D01*
X110913740Y-69169980D01*
X110913740Y-70919980D01*
G37*
G36*
X129163740Y-95119980D02*
G01*
X128863740Y-95119980D01*
X128863740Y-93369980D01*
X129163740Y-93369980D01*
X129163740Y-95119980D01*
G37*
G36*
X128163740Y-95119980D02*
G01*
X127863740Y-95119980D01*
X127863740Y-93369980D01*
X128163740Y-93369980D01*
X128163740Y-95119980D01*
G37*
G36*
X127663740Y-95119980D02*
G01*
X127363740Y-95119980D01*
X127363740Y-93369980D01*
X127663740Y-93369980D01*
X127663740Y-95119980D01*
G37*
G36*
X128663740Y-95119980D02*
G01*
X128363740Y-95119980D01*
X128363740Y-93369980D01*
X128663740Y-93369980D01*
X128663740Y-95119980D01*
G37*
G36*
X127163740Y-95119980D02*
G01*
X126863740Y-95119980D01*
X126863740Y-93369980D01*
X127163740Y-93369980D01*
X127163740Y-95119980D01*
G37*
G36*
X126163740Y-95119980D02*
G01*
X125863740Y-95119980D01*
X125863740Y-93369980D01*
X126163740Y-93369980D01*
X126163740Y-95119980D01*
G37*
G36*
X125663740Y-95119980D02*
G01*
X125363740Y-95119980D01*
X125363740Y-93369980D01*
X125663740Y-93369980D01*
X125663740Y-95119980D01*
G37*
G36*
X126663740Y-95119980D02*
G01*
X126363740Y-95119980D01*
X126363740Y-93369980D01*
X126663740Y-93369980D01*
X126663740Y-95119980D01*
G37*
G36*
X125163740Y-95119980D02*
G01*
X124863740Y-95119980D01*
X124863740Y-93369980D01*
X125163740Y-93369980D01*
X125163740Y-95119980D01*
G37*
G36*
X124163740Y-95119980D02*
G01*
X123863740Y-95119980D01*
X123863740Y-93369980D01*
X124163740Y-93369980D01*
X124163740Y-95119980D01*
G37*
G36*
X123663740Y-95119980D02*
G01*
X123363740Y-95119980D01*
X123363740Y-93369980D01*
X123663740Y-93369980D01*
X123663740Y-95119980D01*
G37*
G36*
X124663740Y-95119980D02*
G01*
X124363740Y-95119980D01*
X124363740Y-93369980D01*
X124663740Y-93369980D01*
X124663740Y-95119980D01*
G37*
G36*
X123163740Y-95119980D02*
G01*
X122863740Y-95119980D01*
X122863740Y-93369980D01*
X123163740Y-93369980D01*
X123163740Y-95119980D01*
G37*
G36*
X122163740Y-95119980D02*
G01*
X121863740Y-95119980D01*
X121863740Y-93369980D01*
X122163740Y-93369980D01*
X122163740Y-95119980D01*
G37*
G36*
X121663740Y-95119980D02*
G01*
X121363740Y-95119980D01*
X121363740Y-93369980D01*
X121663740Y-93369980D01*
X121663740Y-95119980D01*
G37*
G36*
X122663740Y-95119980D02*
G01*
X122363740Y-95119980D01*
X122363740Y-93369980D01*
X122663740Y-93369980D01*
X122663740Y-95119980D01*
G37*
G36*
X121163740Y-95119980D02*
G01*
X120863740Y-95119980D01*
X120863740Y-93369980D01*
X121163740Y-93369980D01*
X121163740Y-95119980D01*
G37*
G36*
X120163740Y-95119980D02*
G01*
X119863740Y-95119980D01*
X119863740Y-93369980D01*
X120163740Y-93369980D01*
X120163740Y-95119980D01*
G37*
G36*
X119663740Y-95119980D02*
G01*
X119363740Y-95119980D01*
X119363740Y-93369980D01*
X119663740Y-93369980D01*
X119663740Y-95119980D01*
G37*
G36*
X120663740Y-95119980D02*
G01*
X120363740Y-95119980D01*
X120363740Y-93369980D01*
X120663740Y-93369980D01*
X120663740Y-95119980D01*
G37*
G36*
X119163740Y-95119980D02*
G01*
X118863740Y-95119980D01*
X118863740Y-93369980D01*
X119163740Y-93369980D01*
X119163740Y-95119980D01*
G37*
G36*
X118663740Y-95119980D02*
G01*
X118363740Y-95119980D01*
X118363740Y-93369980D01*
X118663740Y-93369980D01*
X118663740Y-95119980D01*
G37*
G36*
X116163740Y-95119980D02*
G01*
X115863740Y-95119980D01*
X115863740Y-93369980D01*
X116163740Y-93369980D01*
X116163740Y-95119980D01*
G37*
G36*
X115663740Y-95119980D02*
G01*
X115363740Y-95119980D01*
X115363740Y-93369980D01*
X115663740Y-93369980D01*
X115663740Y-95119980D01*
G37*
G36*
X115163740Y-95119980D02*
G01*
X114863740Y-95119980D01*
X114863740Y-93369980D01*
X115163740Y-93369980D01*
X115163740Y-95119980D01*
G37*
G36*
X114163740Y-95119980D02*
G01*
X113863740Y-95119980D01*
X113863740Y-93369980D01*
X114163740Y-93369980D01*
X114163740Y-95119980D01*
G37*
G36*
X113663740Y-95119980D02*
G01*
X113363740Y-95119980D01*
X113363740Y-93369980D01*
X113663740Y-93369980D01*
X113663740Y-95119980D01*
G37*
G36*
X114663740Y-95119980D02*
G01*
X114363740Y-95119980D01*
X114363740Y-93369980D01*
X114663740Y-93369980D01*
X114663740Y-95119980D01*
G37*
G36*
X113163740Y-95119980D02*
G01*
X112863740Y-95119980D01*
X112863740Y-93369980D01*
X113163740Y-93369980D01*
X113163740Y-95119980D01*
G37*
G36*
X112163740Y-95119980D02*
G01*
X111863740Y-95119980D01*
X111863740Y-93369980D01*
X112163740Y-93369980D01*
X112163740Y-95119980D01*
G37*
G36*
X111663740Y-95119980D02*
G01*
X111363740Y-95119980D01*
X111363740Y-93369980D01*
X111663740Y-93369980D01*
X111663740Y-95119980D01*
G37*
G36*
X112663740Y-95119980D02*
G01*
X112363740Y-95119980D01*
X112363740Y-93369980D01*
X112663740Y-93369980D01*
X112663740Y-95119980D01*
G37*
G36*
X111163740Y-95119980D02*
G01*
X110863740Y-95119980D01*
X110863740Y-93369980D01*
X111163740Y-93369980D01*
X111163740Y-95119980D01*
G37*
G36*
X129413740Y-102669980D02*
G01*
X129113740Y-102669980D01*
X129113740Y-100919980D01*
X129413740Y-100919980D01*
X129413740Y-102669980D01*
G37*
G36*
X128413740Y-102669980D02*
G01*
X128113740Y-102669980D01*
X128113740Y-100919980D01*
X128413740Y-100919980D01*
X128413740Y-102669980D01*
G37*
G36*
X127913740Y-102669980D02*
G01*
X127613740Y-102669980D01*
X127613740Y-100919980D01*
X127913740Y-100919980D01*
X127913740Y-102669980D01*
G37*
G36*
X128913740Y-102669980D02*
G01*
X128613740Y-102669980D01*
X128613740Y-100919980D01*
X128913740Y-100919980D01*
X128913740Y-102669980D01*
G37*
G36*
X127413740Y-102669980D02*
G01*
X127113740Y-102669980D01*
X127113740Y-100919980D01*
X127413740Y-100919980D01*
X127413740Y-102669980D01*
G37*
G36*
X126413740Y-102669980D02*
G01*
X126113740Y-102669980D01*
X126113740Y-100919980D01*
X126413740Y-100919980D01*
X126413740Y-102669980D01*
G37*
G36*
X125913740Y-102669980D02*
G01*
X125613740Y-102669980D01*
X125613740Y-100919980D01*
X125913740Y-100919980D01*
X125913740Y-102669980D01*
G37*
G36*
X126913740Y-102669980D02*
G01*
X126613740Y-102669980D01*
X126613740Y-100919980D01*
X126913740Y-100919980D01*
X126913740Y-102669980D01*
G37*
G36*
X125413740Y-102669980D02*
G01*
X125113740Y-102669980D01*
X125113740Y-100919980D01*
X125413740Y-100919980D01*
X125413740Y-102669980D01*
G37*
G36*
X124413740Y-102669980D02*
G01*
X124113740Y-102669980D01*
X124113740Y-100919980D01*
X124413740Y-100919980D01*
X124413740Y-102669980D01*
G37*
G36*
X123913740Y-102669980D02*
G01*
X123613740Y-102669980D01*
X123613740Y-100919980D01*
X123913740Y-100919980D01*
X123913740Y-102669980D01*
G37*
G36*
X124913740Y-102669980D02*
G01*
X124613740Y-102669980D01*
X124613740Y-100919980D01*
X124913740Y-100919980D01*
X124913740Y-102669980D01*
G37*
G36*
X123413740Y-102669980D02*
G01*
X123113740Y-102669980D01*
X123113740Y-100919980D01*
X123413740Y-100919980D01*
X123413740Y-102669980D01*
G37*
G36*
X122413740Y-102669980D02*
G01*
X122113740Y-102669980D01*
X122113740Y-100919980D01*
X122413740Y-100919980D01*
X122413740Y-102669980D01*
G37*
G36*
X121913740Y-102669980D02*
G01*
X121613740Y-102669980D01*
X121613740Y-100919980D01*
X121913740Y-100919980D01*
X121913740Y-102669980D01*
G37*
G36*
X122913740Y-102669980D02*
G01*
X122613740Y-102669980D01*
X122613740Y-100919980D01*
X122913740Y-100919980D01*
X122913740Y-102669980D01*
G37*
G36*
X121413740Y-102669980D02*
G01*
X121113740Y-102669980D01*
X121113740Y-100919980D01*
X121413740Y-100919980D01*
X121413740Y-102669980D01*
G37*
G36*
X120413740Y-102669980D02*
G01*
X120113740Y-102669980D01*
X120113740Y-100919980D01*
X120413740Y-100919980D01*
X120413740Y-102669980D01*
G37*
G36*
X119913740Y-102669980D02*
G01*
X119613740Y-102669980D01*
X119613740Y-100919980D01*
X119913740Y-100919980D01*
X119913740Y-102669980D01*
G37*
G36*
X120913740Y-102669980D02*
G01*
X120613740Y-102669980D01*
X120613740Y-100919980D01*
X120913740Y-100919980D01*
X120913740Y-102669980D01*
G37*
G36*
X119413740Y-102669980D02*
G01*
X119113740Y-102669980D01*
X119113740Y-100919980D01*
X119413740Y-100919980D01*
X119413740Y-102669980D01*
G37*
G36*
X118913740Y-102669980D02*
G01*
X118613740Y-102669980D01*
X118613740Y-100919980D01*
X118913740Y-100919980D01*
X118913740Y-102669980D01*
G37*
G36*
X116413740Y-102669980D02*
G01*
X116113740Y-102669980D01*
X116113740Y-100919980D01*
X116413740Y-100919980D01*
X116413740Y-102669980D01*
G37*
G36*
X115913740Y-102669980D02*
G01*
X115613740Y-102669980D01*
X115613740Y-100919980D01*
X115913740Y-100919980D01*
X115913740Y-102669980D01*
G37*
G36*
X115413740Y-102669980D02*
G01*
X115113740Y-102669980D01*
X115113740Y-100919980D01*
X115413740Y-100919980D01*
X115413740Y-102669980D01*
G37*
G36*
X114413740Y-102669980D02*
G01*
X114113740Y-102669980D01*
X114113740Y-100919980D01*
X114413740Y-100919980D01*
X114413740Y-102669980D01*
G37*
G36*
X113913740Y-102669980D02*
G01*
X113613740Y-102669980D01*
X113613740Y-100919980D01*
X113913740Y-100919980D01*
X113913740Y-102669980D01*
G37*
G36*
X114913740Y-102669980D02*
G01*
X114613740Y-102669980D01*
X114613740Y-100919980D01*
X114913740Y-100919980D01*
X114913740Y-102669980D01*
G37*
G36*
X113413740Y-102669980D02*
G01*
X113113740Y-102669980D01*
X113113740Y-100919980D01*
X113413740Y-100919980D01*
X113413740Y-102669980D01*
G37*
G36*
X112413740Y-102669980D02*
G01*
X112113740Y-102669980D01*
X112113740Y-100919980D01*
X112413740Y-100919980D01*
X112413740Y-102669980D01*
G37*
G36*
X111913740Y-102669980D02*
G01*
X111613740Y-102669980D01*
X111613740Y-100919980D01*
X111913740Y-100919980D01*
X111913740Y-102669980D01*
G37*
G36*
X112913740Y-102669980D02*
G01*
X112613740Y-102669980D01*
X112613740Y-100919980D01*
X112913740Y-100919980D01*
X112913740Y-102669980D01*
G37*
G36*
X111413740Y-102669980D02*
G01*
X111113740Y-102669980D01*
X111113740Y-100919980D01*
X111413740Y-100919980D01*
X111413740Y-102669980D01*
G37*
G36*
X110913740Y-102669980D02*
G01*
X110613740Y-102669980D01*
X110613740Y-100919980D01*
X110913740Y-100919980D01*
X110913740Y-102669980D01*
G37*
G36*
X129163740Y-126869980D02*
G01*
X128863740Y-126869980D01*
X128863740Y-125119980D01*
X129163740Y-125119980D01*
X129163740Y-126869980D01*
G37*
G36*
X128163740Y-126869980D02*
G01*
X127863740Y-126869980D01*
X127863740Y-125119980D01*
X128163740Y-125119980D01*
X128163740Y-126869980D01*
G37*
G36*
X127663740Y-126869980D02*
G01*
X127363740Y-126869980D01*
X127363740Y-125119980D01*
X127663740Y-125119980D01*
X127663740Y-126869980D01*
G37*
G36*
X128663740Y-126869980D02*
G01*
X128363740Y-126869980D01*
X128363740Y-125119980D01*
X128663740Y-125119980D01*
X128663740Y-126869980D01*
G37*
G36*
X127163740Y-126869980D02*
G01*
X126863740Y-126869980D01*
X126863740Y-125119980D01*
X127163740Y-125119980D01*
X127163740Y-126869980D01*
G37*
G36*
X126163740Y-126869980D02*
G01*
X125863740Y-126869980D01*
X125863740Y-125119980D01*
X126163740Y-125119980D01*
X126163740Y-126869980D01*
G37*
G36*
X125663740Y-126869980D02*
G01*
X125363740Y-126869980D01*
X125363740Y-125119980D01*
X125663740Y-125119980D01*
X125663740Y-126869980D01*
G37*
G36*
X126663740Y-126869980D02*
G01*
X126363740Y-126869980D01*
X126363740Y-125119980D01*
X126663740Y-125119980D01*
X126663740Y-126869980D01*
G37*
G36*
X125163740Y-126869980D02*
G01*
X124863740Y-126869980D01*
X124863740Y-125119980D01*
X125163740Y-125119980D01*
X125163740Y-126869980D01*
G37*
G36*
X124163740Y-126869980D02*
G01*
X123863740Y-126869980D01*
X123863740Y-125119980D01*
X124163740Y-125119980D01*
X124163740Y-126869980D01*
G37*
G36*
X123663740Y-126869980D02*
G01*
X123363740Y-126869980D01*
X123363740Y-125119980D01*
X123663740Y-125119980D01*
X123663740Y-126869980D01*
G37*
G36*
X124663740Y-126869980D02*
G01*
X124363740Y-126869980D01*
X124363740Y-125119980D01*
X124663740Y-125119980D01*
X124663740Y-126869980D01*
G37*
G36*
X123163740Y-126869980D02*
G01*
X122863740Y-126869980D01*
X122863740Y-125119980D01*
X123163740Y-125119980D01*
X123163740Y-126869980D01*
G37*
G36*
X122163740Y-126869980D02*
G01*
X121863740Y-126869980D01*
X121863740Y-125119980D01*
X122163740Y-125119980D01*
X122163740Y-126869980D01*
G37*
G36*
X121663740Y-126869980D02*
G01*
X121363740Y-126869980D01*
X121363740Y-125119980D01*
X121663740Y-125119980D01*
X121663740Y-126869980D01*
G37*
G36*
X122663740Y-126869980D02*
G01*
X122363740Y-126869980D01*
X122363740Y-125119980D01*
X122663740Y-125119980D01*
X122663740Y-126869980D01*
G37*
G36*
X121163740Y-126869980D02*
G01*
X120863740Y-126869980D01*
X120863740Y-125119980D01*
X121163740Y-125119980D01*
X121163740Y-126869980D01*
G37*
G36*
X120163740Y-126869980D02*
G01*
X119863740Y-126869980D01*
X119863740Y-125119980D01*
X120163740Y-125119980D01*
X120163740Y-126869980D01*
G37*
G36*
X119663740Y-126869980D02*
G01*
X119363740Y-126869980D01*
X119363740Y-125119980D01*
X119663740Y-125119980D01*
X119663740Y-126869980D01*
G37*
G36*
X120663740Y-126869980D02*
G01*
X120363740Y-126869980D01*
X120363740Y-125119980D01*
X120663740Y-125119980D01*
X120663740Y-126869980D01*
G37*
G36*
X119163740Y-126869980D02*
G01*
X118863740Y-126869980D01*
X118863740Y-125119980D01*
X119163740Y-125119980D01*
X119163740Y-126869980D01*
G37*
G36*
X118663740Y-126869980D02*
G01*
X118363740Y-126869980D01*
X118363740Y-125119980D01*
X118663740Y-125119980D01*
X118663740Y-126869980D01*
G37*
G36*
X116163740Y-126869980D02*
G01*
X115863740Y-126869980D01*
X115863740Y-125119980D01*
X116163740Y-125119980D01*
X116163740Y-126869980D01*
G37*
G36*
X115663740Y-126869980D02*
G01*
X115363740Y-126869980D01*
X115363740Y-125119980D01*
X115663740Y-125119980D01*
X115663740Y-126869980D01*
G37*
G36*
X115163740Y-126869980D02*
G01*
X114863740Y-126869980D01*
X114863740Y-125119980D01*
X115163740Y-125119980D01*
X115163740Y-126869980D01*
G37*
G36*
X114163740Y-126869980D02*
G01*
X113863740Y-126869980D01*
X113863740Y-125119980D01*
X114163740Y-125119980D01*
X114163740Y-126869980D01*
G37*
G36*
X113663740Y-126869980D02*
G01*
X113363740Y-126869980D01*
X113363740Y-125119980D01*
X113663740Y-125119980D01*
X113663740Y-126869980D01*
G37*
G36*
X114663740Y-126869980D02*
G01*
X114363740Y-126869980D01*
X114363740Y-125119980D01*
X114663740Y-125119980D01*
X114663740Y-126869980D01*
G37*
G36*
X113163740Y-126869980D02*
G01*
X112863740Y-126869980D01*
X112863740Y-125119980D01*
X113163740Y-125119980D01*
X113163740Y-126869980D01*
G37*
G36*
X112163740Y-126869980D02*
G01*
X111863740Y-126869980D01*
X111863740Y-125119980D01*
X112163740Y-125119980D01*
X112163740Y-126869980D01*
G37*
G36*
X111663740Y-126869980D02*
G01*
X111363740Y-126869980D01*
X111363740Y-125119980D01*
X111663740Y-125119980D01*
X111663740Y-126869980D01*
G37*
G36*
X112663740Y-126869980D02*
G01*
X112363740Y-126869980D01*
X112363740Y-125119980D01*
X112663740Y-125119980D01*
X112663740Y-126869980D01*
G37*
G36*
X111163740Y-126869980D02*
G01*
X110863740Y-126869980D01*
X110863740Y-125119980D01*
X111163740Y-125119980D01*
X111163740Y-126869980D01*
G37*
G36*
X129413740Y-134419980D02*
G01*
X129113740Y-134419980D01*
X129113740Y-132669980D01*
X129413740Y-132669980D01*
X129413740Y-134419980D01*
G37*
G36*
X128413740Y-134419980D02*
G01*
X128113740Y-134419980D01*
X128113740Y-132669980D01*
X128413740Y-132669980D01*
X128413740Y-134419980D01*
G37*
G36*
X127913740Y-134419980D02*
G01*
X127613740Y-134419980D01*
X127613740Y-132669980D01*
X127913740Y-132669980D01*
X127913740Y-134419980D01*
G37*
G36*
X128913740Y-134419980D02*
G01*
X128613740Y-134419980D01*
X128613740Y-132669980D01*
X128913740Y-132669980D01*
X128913740Y-134419980D01*
G37*
G36*
X127413740Y-134419980D02*
G01*
X127113740Y-134419980D01*
X127113740Y-132669980D01*
X127413740Y-132669980D01*
X127413740Y-134419980D01*
G37*
G36*
X126413740Y-134419980D02*
G01*
X126113740Y-134419980D01*
X126113740Y-132669980D01*
X126413740Y-132669980D01*
X126413740Y-134419980D01*
G37*
G36*
X125913740Y-134419980D02*
G01*
X125613740Y-134419980D01*
X125613740Y-132669980D01*
X125913740Y-132669980D01*
X125913740Y-134419980D01*
G37*
G36*
X126913740Y-134419980D02*
G01*
X126613740Y-134419980D01*
X126613740Y-132669980D01*
X126913740Y-132669980D01*
X126913740Y-134419980D01*
G37*
G36*
X125413740Y-134419980D02*
G01*
X125113740Y-134419980D01*
X125113740Y-132669980D01*
X125413740Y-132669980D01*
X125413740Y-134419980D01*
G37*
G36*
X124413740Y-134419980D02*
G01*
X124113740Y-134419980D01*
X124113740Y-132669980D01*
X124413740Y-132669980D01*
X124413740Y-134419980D01*
G37*
G36*
X123913740Y-134419980D02*
G01*
X123613740Y-134419980D01*
X123613740Y-132669980D01*
X123913740Y-132669980D01*
X123913740Y-134419980D01*
G37*
G36*
X124913740Y-134419980D02*
G01*
X124613740Y-134419980D01*
X124613740Y-132669980D01*
X124913740Y-132669980D01*
X124913740Y-134419980D01*
G37*
G36*
X123413740Y-134419980D02*
G01*
X123113740Y-134419980D01*
X123113740Y-132669980D01*
X123413740Y-132669980D01*
X123413740Y-134419980D01*
G37*
G36*
X122413740Y-134419980D02*
G01*
X122113740Y-134419980D01*
X122113740Y-132669980D01*
X122413740Y-132669980D01*
X122413740Y-134419980D01*
G37*
G36*
X121913740Y-134419980D02*
G01*
X121613740Y-134419980D01*
X121613740Y-132669980D01*
X121913740Y-132669980D01*
X121913740Y-134419980D01*
G37*
G36*
X122913740Y-134419980D02*
G01*
X122613740Y-134419980D01*
X122613740Y-132669980D01*
X122913740Y-132669980D01*
X122913740Y-134419980D01*
G37*
G36*
X121413740Y-134419980D02*
G01*
X121113740Y-134419980D01*
X121113740Y-132669980D01*
X121413740Y-132669980D01*
X121413740Y-134419980D01*
G37*
G36*
X120413740Y-134419980D02*
G01*
X120113740Y-134419980D01*
X120113740Y-132669980D01*
X120413740Y-132669980D01*
X120413740Y-134419980D01*
G37*
G36*
X119913740Y-134419980D02*
G01*
X119613740Y-134419980D01*
X119613740Y-132669980D01*
X119913740Y-132669980D01*
X119913740Y-134419980D01*
G37*
G36*
X120913740Y-134419980D02*
G01*
X120613740Y-134419980D01*
X120613740Y-132669980D01*
X120913740Y-132669980D01*
X120913740Y-134419980D01*
G37*
G36*
X119413740Y-134419980D02*
G01*
X119113740Y-134419980D01*
X119113740Y-132669980D01*
X119413740Y-132669980D01*
X119413740Y-134419980D01*
G37*
G36*
X118913740Y-134419980D02*
G01*
X118613740Y-134419980D01*
X118613740Y-132669980D01*
X118913740Y-132669980D01*
X118913740Y-134419980D01*
G37*
G36*
X116413740Y-134419980D02*
G01*
X116113740Y-134419980D01*
X116113740Y-132669980D01*
X116413740Y-132669980D01*
X116413740Y-134419980D01*
G37*
G36*
X115913740Y-134419980D02*
G01*
X115613740Y-134419980D01*
X115613740Y-132669980D01*
X115913740Y-132669980D01*
X115913740Y-134419980D01*
G37*
G36*
X115413740Y-134419980D02*
G01*
X115113740Y-134419980D01*
X115113740Y-132669980D01*
X115413740Y-132669980D01*
X115413740Y-134419980D01*
G37*
G36*
X114413740Y-134419980D02*
G01*
X114113740Y-134419980D01*
X114113740Y-132669980D01*
X114413740Y-132669980D01*
X114413740Y-134419980D01*
G37*
G36*
X113913740Y-134419980D02*
G01*
X113613740Y-134419980D01*
X113613740Y-132669980D01*
X113913740Y-132669980D01*
X113913740Y-134419980D01*
G37*
G36*
X114913740Y-134419980D02*
G01*
X114613740Y-134419980D01*
X114613740Y-132669980D01*
X114913740Y-132669980D01*
X114913740Y-134419980D01*
G37*
G36*
X113413740Y-134419980D02*
G01*
X113113740Y-134419980D01*
X113113740Y-132669980D01*
X113413740Y-132669980D01*
X113413740Y-134419980D01*
G37*
G36*
X112413740Y-134419980D02*
G01*
X112113740Y-134419980D01*
X112113740Y-132669980D01*
X112413740Y-132669980D01*
X112413740Y-134419980D01*
G37*
G36*
X111913740Y-134419980D02*
G01*
X111613740Y-134419980D01*
X111613740Y-132669980D01*
X111913740Y-132669980D01*
X111913740Y-134419980D01*
G37*
G36*
X112913740Y-134419980D02*
G01*
X112613740Y-134419980D01*
X112613740Y-132669980D01*
X112913740Y-132669980D01*
X112913740Y-134419980D01*
G37*
G36*
X111413740Y-134419980D02*
G01*
X111113740Y-134419980D01*
X111113740Y-132669980D01*
X111413740Y-132669980D01*
X111413740Y-134419980D01*
G37*
G36*
X110913740Y-134419980D02*
G01*
X110613740Y-134419980D01*
X110613740Y-132669980D01*
X110913740Y-132669980D01*
X110913740Y-134419980D01*
G37*
G36*
X183773740Y-63369980D02*
G01*
X183473740Y-63369980D01*
X183473740Y-61619980D01*
X183773740Y-61619980D01*
X183773740Y-63369980D01*
G37*
G36*
X182773740Y-63369980D02*
G01*
X182473740Y-63369980D01*
X182473740Y-61619980D01*
X182773740Y-61619980D01*
X182773740Y-63369980D01*
G37*
G36*
X182273740Y-63369980D02*
G01*
X181973740Y-63369980D01*
X181973740Y-61619980D01*
X182273740Y-61619980D01*
X182273740Y-63369980D01*
G37*
G36*
X183273740Y-63369980D02*
G01*
X182973740Y-63369980D01*
X182973740Y-61619980D01*
X183273740Y-61619980D01*
X183273740Y-63369980D01*
G37*
G36*
X181773740Y-63369980D02*
G01*
X181473740Y-63369980D01*
X181473740Y-61619980D01*
X181773740Y-61619980D01*
X181773740Y-63369980D01*
G37*
G36*
X180773740Y-63369980D02*
G01*
X180473740Y-63369980D01*
X180473740Y-61619980D01*
X180773740Y-61619980D01*
X180773740Y-63369980D01*
G37*
G36*
X180273740Y-63369980D02*
G01*
X179973740Y-63369980D01*
X179973740Y-61619980D01*
X180273740Y-61619980D01*
X180273740Y-63369980D01*
G37*
G36*
X181273740Y-63369980D02*
G01*
X180973740Y-63369980D01*
X180973740Y-61619980D01*
X181273740Y-61619980D01*
X181273740Y-63369980D01*
G37*
G36*
X179773740Y-63369980D02*
G01*
X179473740Y-63369980D01*
X179473740Y-61619980D01*
X179773740Y-61619980D01*
X179773740Y-63369980D01*
G37*
G36*
X178773740Y-63369980D02*
G01*
X178473740Y-63369980D01*
X178473740Y-61619980D01*
X178773740Y-61619980D01*
X178773740Y-63369980D01*
G37*
G36*
X178273740Y-63369980D02*
G01*
X177973740Y-63369980D01*
X177973740Y-61619980D01*
X178273740Y-61619980D01*
X178273740Y-63369980D01*
G37*
G36*
X179273740Y-63369980D02*
G01*
X178973740Y-63369980D01*
X178973740Y-61619980D01*
X179273740Y-61619980D01*
X179273740Y-63369980D01*
G37*
G36*
X177773740Y-63369980D02*
G01*
X177473740Y-63369980D01*
X177473740Y-61619980D01*
X177773740Y-61619980D01*
X177773740Y-63369980D01*
G37*
G36*
X176773740Y-63369980D02*
G01*
X176473740Y-63369980D01*
X176473740Y-61619980D01*
X176773740Y-61619980D01*
X176773740Y-63369980D01*
G37*
G36*
X176273740Y-63369980D02*
G01*
X175973740Y-63369980D01*
X175973740Y-61619980D01*
X176273740Y-61619980D01*
X176273740Y-63369980D01*
G37*
G36*
X177273740Y-63369980D02*
G01*
X176973740Y-63369980D01*
X176973740Y-61619980D01*
X177273740Y-61619980D01*
X177273740Y-63369980D01*
G37*
G36*
X175773740Y-63369980D02*
G01*
X175473740Y-63369980D01*
X175473740Y-61619980D01*
X175773740Y-61619980D01*
X175773740Y-63369980D01*
G37*
G36*
X174773740Y-63369980D02*
G01*
X174473740Y-63369980D01*
X174473740Y-61619980D01*
X174773740Y-61619980D01*
X174773740Y-63369980D01*
G37*
G36*
X174273740Y-63369980D02*
G01*
X173973740Y-63369980D01*
X173973740Y-61619980D01*
X174273740Y-61619980D01*
X174273740Y-63369980D01*
G37*
G36*
X175273740Y-63369980D02*
G01*
X174973740Y-63369980D01*
X174973740Y-61619980D01*
X175273740Y-61619980D01*
X175273740Y-63369980D01*
G37*
G36*
X173773740Y-63369980D02*
G01*
X173473740Y-63369980D01*
X173473740Y-61619980D01*
X173773740Y-61619980D01*
X173773740Y-63369980D01*
G37*
G36*
X173273740Y-63369980D02*
G01*
X172973740Y-63369980D01*
X172973740Y-61619980D01*
X173273740Y-61619980D01*
X173273740Y-63369980D01*
G37*
G36*
X170773740Y-63369980D02*
G01*
X170473740Y-63369980D01*
X170473740Y-61619980D01*
X170773740Y-61619980D01*
X170773740Y-63369980D01*
G37*
G36*
X170273740Y-63369980D02*
G01*
X169973740Y-63369980D01*
X169973740Y-61619980D01*
X170273740Y-61619980D01*
X170273740Y-63369980D01*
G37*
G36*
X169773740Y-63369980D02*
G01*
X169473740Y-63369980D01*
X169473740Y-61619980D01*
X169773740Y-61619980D01*
X169773740Y-63369980D01*
G37*
G36*
X168773740Y-63369980D02*
G01*
X168473740Y-63369980D01*
X168473740Y-61619980D01*
X168773740Y-61619980D01*
X168773740Y-63369980D01*
G37*
G36*
X168273740Y-63369980D02*
G01*
X167973740Y-63369980D01*
X167973740Y-61619980D01*
X168273740Y-61619980D01*
X168273740Y-63369980D01*
G37*
G36*
X169273740Y-63369980D02*
G01*
X168973740Y-63369980D01*
X168973740Y-61619980D01*
X169273740Y-61619980D01*
X169273740Y-63369980D01*
G37*
G36*
X167773740Y-63369980D02*
G01*
X167473740Y-63369980D01*
X167473740Y-61619980D01*
X167773740Y-61619980D01*
X167773740Y-63369980D01*
G37*
G36*
X166773740Y-63369980D02*
G01*
X166473740Y-63369980D01*
X166473740Y-61619980D01*
X166773740Y-61619980D01*
X166773740Y-63369980D01*
G37*
G36*
X166273740Y-63369980D02*
G01*
X165973740Y-63369980D01*
X165973740Y-61619980D01*
X166273740Y-61619980D01*
X166273740Y-63369980D01*
G37*
G36*
X167273740Y-63369980D02*
G01*
X166973740Y-63369980D01*
X166973740Y-61619980D01*
X167273740Y-61619980D01*
X167273740Y-63369980D01*
G37*
G36*
X165773740Y-63369980D02*
G01*
X165473740Y-63369980D01*
X165473740Y-61619980D01*
X165773740Y-61619980D01*
X165773740Y-63369980D01*
G37*
G36*
X184023740Y-70919980D02*
G01*
X183723740Y-70919980D01*
X183723740Y-69169980D01*
X184023740Y-69169980D01*
X184023740Y-70919980D01*
G37*
G36*
X183023740Y-70919980D02*
G01*
X182723740Y-70919980D01*
X182723740Y-69169980D01*
X183023740Y-69169980D01*
X183023740Y-70919980D01*
G37*
G36*
X182523740Y-70919980D02*
G01*
X182223740Y-70919980D01*
X182223740Y-69169980D01*
X182523740Y-69169980D01*
X182523740Y-70919980D01*
G37*
G36*
X183523740Y-70919980D02*
G01*
X183223740Y-70919980D01*
X183223740Y-69169980D01*
X183523740Y-69169980D01*
X183523740Y-70919980D01*
G37*
G36*
X182023740Y-70919980D02*
G01*
X181723740Y-70919980D01*
X181723740Y-69169980D01*
X182023740Y-69169980D01*
X182023740Y-70919980D01*
G37*
G36*
X181023740Y-70919980D02*
G01*
X180723740Y-70919980D01*
X180723740Y-69169980D01*
X181023740Y-69169980D01*
X181023740Y-70919980D01*
G37*
G36*
X180523740Y-70919980D02*
G01*
X180223740Y-70919980D01*
X180223740Y-69169980D01*
X180523740Y-69169980D01*
X180523740Y-70919980D01*
G37*
G36*
X181523740Y-70919980D02*
G01*
X181223740Y-70919980D01*
X181223740Y-69169980D01*
X181523740Y-69169980D01*
X181523740Y-70919980D01*
G37*
G36*
X180023740Y-70919980D02*
G01*
X179723740Y-70919980D01*
X179723740Y-69169980D01*
X180023740Y-69169980D01*
X180023740Y-70919980D01*
G37*
G36*
X179023740Y-70919980D02*
G01*
X178723740Y-70919980D01*
X178723740Y-69169980D01*
X179023740Y-69169980D01*
X179023740Y-70919980D01*
G37*
G36*
X178523740Y-70919980D02*
G01*
X178223740Y-70919980D01*
X178223740Y-69169980D01*
X178523740Y-69169980D01*
X178523740Y-70919980D01*
G37*
G36*
X179523740Y-70919980D02*
G01*
X179223740Y-70919980D01*
X179223740Y-69169980D01*
X179523740Y-69169980D01*
X179523740Y-70919980D01*
G37*
G36*
X178023740Y-70919980D02*
G01*
X177723740Y-70919980D01*
X177723740Y-69169980D01*
X178023740Y-69169980D01*
X178023740Y-70919980D01*
G37*
G36*
X177023740Y-70919980D02*
G01*
X176723740Y-70919980D01*
X176723740Y-69169980D01*
X177023740Y-69169980D01*
X177023740Y-70919980D01*
G37*
G36*
X176523740Y-70919980D02*
G01*
X176223740Y-70919980D01*
X176223740Y-69169980D01*
X176523740Y-69169980D01*
X176523740Y-70919980D01*
G37*
G36*
X177523740Y-70919980D02*
G01*
X177223740Y-70919980D01*
X177223740Y-69169980D01*
X177523740Y-69169980D01*
X177523740Y-70919980D01*
G37*
G36*
X176023740Y-70919980D02*
G01*
X175723740Y-70919980D01*
X175723740Y-69169980D01*
X176023740Y-69169980D01*
X176023740Y-70919980D01*
G37*
G36*
X175023740Y-70919980D02*
G01*
X174723740Y-70919980D01*
X174723740Y-69169980D01*
X175023740Y-69169980D01*
X175023740Y-70919980D01*
G37*
G36*
X174523740Y-70919980D02*
G01*
X174223740Y-70919980D01*
X174223740Y-69169980D01*
X174523740Y-69169980D01*
X174523740Y-70919980D01*
G37*
G36*
X175523740Y-70919980D02*
G01*
X175223740Y-70919980D01*
X175223740Y-69169980D01*
X175523740Y-69169980D01*
X175523740Y-70919980D01*
G37*
G36*
X174023740Y-70919980D02*
G01*
X173723740Y-70919980D01*
X173723740Y-69169980D01*
X174023740Y-69169980D01*
X174023740Y-70919980D01*
G37*
G36*
X173523740Y-70919980D02*
G01*
X173223740Y-70919980D01*
X173223740Y-69169980D01*
X173523740Y-69169980D01*
X173523740Y-70919980D01*
G37*
G36*
X171023740Y-70919980D02*
G01*
X170723740Y-70919980D01*
X170723740Y-69169980D01*
X171023740Y-69169980D01*
X171023740Y-70919980D01*
G37*
G36*
X170523740Y-70919980D02*
G01*
X170223740Y-70919980D01*
X170223740Y-69169980D01*
X170523740Y-69169980D01*
X170523740Y-70919980D01*
G37*
G36*
X170023740Y-70919980D02*
G01*
X169723740Y-70919980D01*
X169723740Y-69169980D01*
X170023740Y-69169980D01*
X170023740Y-70919980D01*
G37*
G36*
X169023740Y-70919980D02*
G01*
X168723740Y-70919980D01*
X168723740Y-69169980D01*
X169023740Y-69169980D01*
X169023740Y-70919980D01*
G37*
G36*
X168523740Y-70919980D02*
G01*
X168223740Y-70919980D01*
X168223740Y-69169980D01*
X168523740Y-69169980D01*
X168523740Y-70919980D01*
G37*
G36*
X169523740Y-70919980D02*
G01*
X169223740Y-70919980D01*
X169223740Y-69169980D01*
X169523740Y-69169980D01*
X169523740Y-70919980D01*
G37*
G36*
X168023740Y-70919980D02*
G01*
X167723740Y-70919980D01*
X167723740Y-69169980D01*
X168023740Y-69169980D01*
X168023740Y-70919980D01*
G37*
G36*
X167023740Y-70919980D02*
G01*
X166723740Y-70919980D01*
X166723740Y-69169980D01*
X167023740Y-69169980D01*
X167023740Y-70919980D01*
G37*
G36*
X166523740Y-70919980D02*
G01*
X166223740Y-70919980D01*
X166223740Y-69169980D01*
X166523740Y-69169980D01*
X166523740Y-70919980D01*
G37*
G36*
X167523740Y-70919980D02*
G01*
X167223740Y-70919980D01*
X167223740Y-69169980D01*
X167523740Y-69169980D01*
X167523740Y-70919980D01*
G37*
G36*
X166023740Y-70919980D02*
G01*
X165723740Y-70919980D01*
X165723740Y-69169980D01*
X166023740Y-69169980D01*
X166023740Y-70919980D01*
G37*
G36*
X165523740Y-70919980D02*
G01*
X165223740Y-70919980D01*
X165223740Y-69169980D01*
X165523740Y-69169980D01*
X165523740Y-70919980D01*
G37*
G36*
X183773740Y-95119980D02*
G01*
X183473740Y-95119980D01*
X183473740Y-93369980D01*
X183773740Y-93369980D01*
X183773740Y-95119980D01*
G37*
G36*
X182773740Y-95119980D02*
G01*
X182473740Y-95119980D01*
X182473740Y-93369980D01*
X182773740Y-93369980D01*
X182773740Y-95119980D01*
G37*
G36*
X182273740Y-95119980D02*
G01*
X181973740Y-95119980D01*
X181973740Y-93369980D01*
X182273740Y-93369980D01*
X182273740Y-95119980D01*
G37*
G36*
X183273740Y-95119980D02*
G01*
X182973740Y-95119980D01*
X182973740Y-93369980D01*
X183273740Y-93369980D01*
X183273740Y-95119980D01*
G37*
G36*
X181773740Y-95119980D02*
G01*
X181473740Y-95119980D01*
X181473740Y-93369980D01*
X181773740Y-93369980D01*
X181773740Y-95119980D01*
G37*
G36*
X180773740Y-95119980D02*
G01*
X180473740Y-95119980D01*
X180473740Y-93369980D01*
X180773740Y-93369980D01*
X180773740Y-95119980D01*
G37*
G36*
X180273740Y-95119980D02*
G01*
X179973740Y-95119980D01*
X179973740Y-93369980D01*
X180273740Y-93369980D01*
X180273740Y-95119980D01*
G37*
G36*
X181273740Y-95119980D02*
G01*
X180973740Y-95119980D01*
X180973740Y-93369980D01*
X181273740Y-93369980D01*
X181273740Y-95119980D01*
G37*
G36*
X179773740Y-95119980D02*
G01*
X179473740Y-95119980D01*
X179473740Y-93369980D01*
X179773740Y-93369980D01*
X179773740Y-95119980D01*
G37*
G36*
X178773740Y-95119980D02*
G01*
X178473740Y-95119980D01*
X178473740Y-93369980D01*
X178773740Y-93369980D01*
X178773740Y-95119980D01*
G37*
G36*
X178273740Y-95119980D02*
G01*
X177973740Y-95119980D01*
X177973740Y-93369980D01*
X178273740Y-93369980D01*
X178273740Y-95119980D01*
G37*
G36*
X179273740Y-95119980D02*
G01*
X178973740Y-95119980D01*
X178973740Y-93369980D01*
X179273740Y-93369980D01*
X179273740Y-95119980D01*
G37*
G36*
X177773740Y-95119980D02*
G01*
X177473740Y-95119980D01*
X177473740Y-93369980D01*
X177773740Y-93369980D01*
X177773740Y-95119980D01*
G37*
G36*
X176773740Y-95119980D02*
G01*
X176473740Y-95119980D01*
X176473740Y-93369980D01*
X176773740Y-93369980D01*
X176773740Y-95119980D01*
G37*
G36*
X176273740Y-95119980D02*
G01*
X175973740Y-95119980D01*
X175973740Y-93369980D01*
X176273740Y-93369980D01*
X176273740Y-95119980D01*
G37*
G36*
X177273740Y-95119980D02*
G01*
X176973740Y-95119980D01*
X176973740Y-93369980D01*
X177273740Y-93369980D01*
X177273740Y-95119980D01*
G37*
G36*
X175773740Y-95119980D02*
G01*
X175473740Y-95119980D01*
X175473740Y-93369980D01*
X175773740Y-93369980D01*
X175773740Y-95119980D01*
G37*
G36*
X174773740Y-95119980D02*
G01*
X174473740Y-95119980D01*
X174473740Y-93369980D01*
X174773740Y-93369980D01*
X174773740Y-95119980D01*
G37*
G36*
X174273740Y-95119980D02*
G01*
X173973740Y-95119980D01*
X173973740Y-93369980D01*
X174273740Y-93369980D01*
X174273740Y-95119980D01*
G37*
G36*
X175273740Y-95119980D02*
G01*
X174973740Y-95119980D01*
X174973740Y-93369980D01*
X175273740Y-93369980D01*
X175273740Y-95119980D01*
G37*
G36*
X173773740Y-95119980D02*
G01*
X173473740Y-95119980D01*
X173473740Y-93369980D01*
X173773740Y-93369980D01*
X173773740Y-95119980D01*
G37*
G36*
X173273740Y-95119980D02*
G01*
X172973740Y-95119980D01*
X172973740Y-93369980D01*
X173273740Y-93369980D01*
X173273740Y-95119980D01*
G37*
G36*
X170773740Y-95119980D02*
G01*
X170473740Y-95119980D01*
X170473740Y-93369980D01*
X170773740Y-93369980D01*
X170773740Y-95119980D01*
G37*
G36*
X170273740Y-95119980D02*
G01*
X169973740Y-95119980D01*
X169973740Y-93369980D01*
X170273740Y-93369980D01*
X170273740Y-95119980D01*
G37*
G36*
X169773740Y-95119980D02*
G01*
X169473740Y-95119980D01*
X169473740Y-93369980D01*
X169773740Y-93369980D01*
X169773740Y-95119980D01*
G37*
G36*
X168773740Y-95119980D02*
G01*
X168473740Y-95119980D01*
X168473740Y-93369980D01*
X168773740Y-93369980D01*
X168773740Y-95119980D01*
G37*
G36*
X168273740Y-95119980D02*
G01*
X167973740Y-95119980D01*
X167973740Y-93369980D01*
X168273740Y-93369980D01*
X168273740Y-95119980D01*
G37*
G36*
X169273740Y-95119980D02*
G01*
X168973740Y-95119980D01*
X168973740Y-93369980D01*
X169273740Y-93369980D01*
X169273740Y-95119980D01*
G37*
G36*
X167773740Y-95119980D02*
G01*
X167473740Y-95119980D01*
X167473740Y-93369980D01*
X167773740Y-93369980D01*
X167773740Y-95119980D01*
G37*
G36*
X166773740Y-95119980D02*
G01*
X166473740Y-95119980D01*
X166473740Y-93369980D01*
X166773740Y-93369980D01*
X166773740Y-95119980D01*
G37*
G36*
X166273740Y-95119980D02*
G01*
X165973740Y-95119980D01*
X165973740Y-93369980D01*
X166273740Y-93369980D01*
X166273740Y-95119980D01*
G37*
G36*
X167273740Y-95119980D02*
G01*
X166973740Y-95119980D01*
X166973740Y-93369980D01*
X167273740Y-93369980D01*
X167273740Y-95119980D01*
G37*
G36*
X165773740Y-95119980D02*
G01*
X165473740Y-95119980D01*
X165473740Y-93369980D01*
X165773740Y-93369980D01*
X165773740Y-95119980D01*
G37*
G36*
X184023740Y-102669980D02*
G01*
X183723740Y-102669980D01*
X183723740Y-100919980D01*
X184023740Y-100919980D01*
X184023740Y-102669980D01*
G37*
G36*
X183023740Y-102669980D02*
G01*
X182723740Y-102669980D01*
X182723740Y-100919980D01*
X183023740Y-100919980D01*
X183023740Y-102669980D01*
G37*
G36*
X182523740Y-102669980D02*
G01*
X182223740Y-102669980D01*
X182223740Y-100919980D01*
X182523740Y-100919980D01*
X182523740Y-102669980D01*
G37*
G36*
X183523740Y-102669980D02*
G01*
X183223740Y-102669980D01*
X183223740Y-100919980D01*
X183523740Y-100919980D01*
X183523740Y-102669980D01*
G37*
G36*
X182023740Y-102669980D02*
G01*
X181723740Y-102669980D01*
X181723740Y-100919980D01*
X182023740Y-100919980D01*
X182023740Y-102669980D01*
G37*
G36*
X181023740Y-102669980D02*
G01*
X180723740Y-102669980D01*
X180723740Y-100919980D01*
X181023740Y-100919980D01*
X181023740Y-102669980D01*
G37*
G36*
X180523740Y-102669980D02*
G01*
X180223740Y-102669980D01*
X180223740Y-100919980D01*
X180523740Y-100919980D01*
X180523740Y-102669980D01*
G37*
G36*
X181523740Y-102669980D02*
G01*
X181223740Y-102669980D01*
X181223740Y-100919980D01*
X181523740Y-100919980D01*
X181523740Y-102669980D01*
G37*
G36*
X180023740Y-102669980D02*
G01*
X179723740Y-102669980D01*
X179723740Y-100919980D01*
X180023740Y-100919980D01*
X180023740Y-102669980D01*
G37*
G36*
X179023740Y-102669980D02*
G01*
X178723740Y-102669980D01*
X178723740Y-100919980D01*
X179023740Y-100919980D01*
X179023740Y-102669980D01*
G37*
G36*
X178523740Y-102669980D02*
G01*
X178223740Y-102669980D01*
X178223740Y-100919980D01*
X178523740Y-100919980D01*
X178523740Y-102669980D01*
G37*
G36*
X179523740Y-102669980D02*
G01*
X179223740Y-102669980D01*
X179223740Y-100919980D01*
X179523740Y-100919980D01*
X179523740Y-102669980D01*
G37*
G36*
X178023740Y-102669980D02*
G01*
X177723740Y-102669980D01*
X177723740Y-100919980D01*
X178023740Y-100919980D01*
X178023740Y-102669980D01*
G37*
G36*
X177023740Y-102669980D02*
G01*
X176723740Y-102669980D01*
X176723740Y-100919980D01*
X177023740Y-100919980D01*
X177023740Y-102669980D01*
G37*
G36*
X176523740Y-102669980D02*
G01*
X176223740Y-102669980D01*
X176223740Y-100919980D01*
X176523740Y-100919980D01*
X176523740Y-102669980D01*
G37*
G36*
X177523740Y-102669980D02*
G01*
X177223740Y-102669980D01*
X177223740Y-100919980D01*
X177523740Y-100919980D01*
X177523740Y-102669980D01*
G37*
G36*
X176023740Y-102669980D02*
G01*
X175723740Y-102669980D01*
X175723740Y-100919980D01*
X176023740Y-100919980D01*
X176023740Y-102669980D01*
G37*
G36*
X175023740Y-102669980D02*
G01*
X174723740Y-102669980D01*
X174723740Y-100919980D01*
X175023740Y-100919980D01*
X175023740Y-102669980D01*
G37*
G36*
X174523740Y-102669980D02*
G01*
X174223740Y-102669980D01*
X174223740Y-100919980D01*
X174523740Y-100919980D01*
X174523740Y-102669980D01*
G37*
G36*
X175523740Y-102669980D02*
G01*
X175223740Y-102669980D01*
X175223740Y-100919980D01*
X175523740Y-100919980D01*
X175523740Y-102669980D01*
G37*
G36*
X174023740Y-102669980D02*
G01*
X173723740Y-102669980D01*
X173723740Y-100919980D01*
X174023740Y-100919980D01*
X174023740Y-102669980D01*
G37*
G36*
X173523740Y-102669980D02*
G01*
X173223740Y-102669980D01*
X173223740Y-100919980D01*
X173523740Y-100919980D01*
X173523740Y-102669980D01*
G37*
G36*
X171023740Y-102669980D02*
G01*
X170723740Y-102669980D01*
X170723740Y-100919980D01*
X171023740Y-100919980D01*
X171023740Y-102669980D01*
G37*
G36*
X170523740Y-102669980D02*
G01*
X170223740Y-102669980D01*
X170223740Y-100919980D01*
X170523740Y-100919980D01*
X170523740Y-102669980D01*
G37*
G36*
X170023740Y-102669980D02*
G01*
X169723740Y-102669980D01*
X169723740Y-100919980D01*
X170023740Y-100919980D01*
X170023740Y-102669980D01*
G37*
G36*
X169023740Y-102669980D02*
G01*
X168723740Y-102669980D01*
X168723740Y-100919980D01*
X169023740Y-100919980D01*
X169023740Y-102669980D01*
G37*
G36*
X168523740Y-102669980D02*
G01*
X168223740Y-102669980D01*
X168223740Y-100919980D01*
X168523740Y-100919980D01*
X168523740Y-102669980D01*
G37*
G36*
X169523740Y-102669980D02*
G01*
X169223740Y-102669980D01*
X169223740Y-100919980D01*
X169523740Y-100919980D01*
X169523740Y-102669980D01*
G37*
G36*
X168023740Y-102669980D02*
G01*
X167723740Y-102669980D01*
X167723740Y-100919980D01*
X168023740Y-100919980D01*
X168023740Y-102669980D01*
G37*
G36*
X167023740Y-102669980D02*
G01*
X166723740Y-102669980D01*
X166723740Y-100919980D01*
X167023740Y-100919980D01*
X167023740Y-102669980D01*
G37*
G36*
X166523740Y-102669980D02*
G01*
X166223740Y-102669980D01*
X166223740Y-100919980D01*
X166523740Y-100919980D01*
X166523740Y-102669980D01*
G37*
G36*
X167523740Y-102669980D02*
G01*
X167223740Y-102669980D01*
X167223740Y-100919980D01*
X167523740Y-100919980D01*
X167523740Y-102669980D01*
G37*
G36*
X166023740Y-102669980D02*
G01*
X165723740Y-102669980D01*
X165723740Y-100919980D01*
X166023740Y-100919980D01*
X166023740Y-102669980D01*
G37*
G36*
X165523740Y-102669980D02*
G01*
X165223740Y-102669980D01*
X165223740Y-100919980D01*
X165523740Y-100919980D01*
X165523740Y-102669980D01*
G37*
G36*
X183773740Y-126869980D02*
G01*
X183473740Y-126869980D01*
X183473740Y-125119980D01*
X183773740Y-125119980D01*
X183773740Y-126869980D01*
G37*
G36*
X182773740Y-126869980D02*
G01*
X182473740Y-126869980D01*
X182473740Y-125119980D01*
X182773740Y-125119980D01*
X182773740Y-126869980D01*
G37*
G36*
X182273740Y-126869980D02*
G01*
X181973740Y-126869980D01*
X181973740Y-125119980D01*
X182273740Y-125119980D01*
X182273740Y-126869980D01*
G37*
G36*
X183273740Y-126869980D02*
G01*
X182973740Y-126869980D01*
X182973740Y-125119980D01*
X183273740Y-125119980D01*
X183273740Y-126869980D01*
G37*
G36*
X181773740Y-126869980D02*
G01*
X181473740Y-126869980D01*
X181473740Y-125119980D01*
X181773740Y-125119980D01*
X181773740Y-126869980D01*
G37*
G36*
X180773740Y-126869980D02*
G01*
X180473740Y-126869980D01*
X180473740Y-125119980D01*
X180773740Y-125119980D01*
X180773740Y-126869980D01*
G37*
G36*
X180273740Y-126869980D02*
G01*
X179973740Y-126869980D01*
X179973740Y-125119980D01*
X180273740Y-125119980D01*
X180273740Y-126869980D01*
G37*
G36*
X181273740Y-126869980D02*
G01*
X180973740Y-126869980D01*
X180973740Y-125119980D01*
X181273740Y-125119980D01*
X181273740Y-126869980D01*
G37*
G36*
X179773740Y-126869980D02*
G01*
X179473740Y-126869980D01*
X179473740Y-125119980D01*
X179773740Y-125119980D01*
X179773740Y-126869980D01*
G37*
G36*
X178773740Y-126869980D02*
G01*
X178473740Y-126869980D01*
X178473740Y-125119980D01*
X178773740Y-125119980D01*
X178773740Y-126869980D01*
G37*
G36*
X178273740Y-126869980D02*
G01*
X177973740Y-126869980D01*
X177973740Y-125119980D01*
X178273740Y-125119980D01*
X178273740Y-126869980D01*
G37*
G36*
X179273740Y-126869980D02*
G01*
X178973740Y-126869980D01*
X178973740Y-125119980D01*
X179273740Y-125119980D01*
X179273740Y-126869980D01*
G37*
G36*
X177773740Y-126869980D02*
G01*
X177473740Y-126869980D01*
X177473740Y-125119980D01*
X177773740Y-125119980D01*
X177773740Y-126869980D01*
G37*
G36*
X176773740Y-126869980D02*
G01*
X176473740Y-126869980D01*
X176473740Y-125119980D01*
X176773740Y-125119980D01*
X176773740Y-126869980D01*
G37*
G36*
X176273740Y-126869980D02*
G01*
X175973740Y-126869980D01*
X175973740Y-125119980D01*
X176273740Y-125119980D01*
X176273740Y-126869980D01*
G37*
G36*
X177273740Y-126869980D02*
G01*
X176973740Y-126869980D01*
X176973740Y-125119980D01*
X177273740Y-125119980D01*
X177273740Y-126869980D01*
G37*
G36*
X175773740Y-126869980D02*
G01*
X175473740Y-126869980D01*
X175473740Y-125119980D01*
X175773740Y-125119980D01*
X175773740Y-126869980D01*
G37*
G36*
X174773740Y-126869980D02*
G01*
X174473740Y-126869980D01*
X174473740Y-125119980D01*
X174773740Y-125119980D01*
X174773740Y-126869980D01*
G37*
G36*
X174273740Y-126869980D02*
G01*
X173973740Y-126869980D01*
X173973740Y-125119980D01*
X174273740Y-125119980D01*
X174273740Y-126869980D01*
G37*
G36*
X175273740Y-126869980D02*
G01*
X174973740Y-126869980D01*
X174973740Y-125119980D01*
X175273740Y-125119980D01*
X175273740Y-126869980D01*
G37*
G36*
X173773740Y-126869980D02*
G01*
X173473740Y-126869980D01*
X173473740Y-125119980D01*
X173773740Y-125119980D01*
X173773740Y-126869980D01*
G37*
G36*
X173273740Y-126869980D02*
G01*
X172973740Y-126869980D01*
X172973740Y-125119980D01*
X173273740Y-125119980D01*
X173273740Y-126869980D01*
G37*
G36*
X170773740Y-126869980D02*
G01*
X170473740Y-126869980D01*
X170473740Y-125119980D01*
X170773740Y-125119980D01*
X170773740Y-126869980D01*
G37*
G36*
X170273740Y-126869980D02*
G01*
X169973740Y-126869980D01*
X169973740Y-125119980D01*
X170273740Y-125119980D01*
X170273740Y-126869980D01*
G37*
G36*
X169773740Y-126869980D02*
G01*
X169473740Y-126869980D01*
X169473740Y-125119980D01*
X169773740Y-125119980D01*
X169773740Y-126869980D01*
G37*
G36*
X168773740Y-126869980D02*
G01*
X168473740Y-126869980D01*
X168473740Y-125119980D01*
X168773740Y-125119980D01*
X168773740Y-126869980D01*
G37*
G36*
X168273740Y-126869980D02*
G01*
X167973740Y-126869980D01*
X167973740Y-125119980D01*
X168273740Y-125119980D01*
X168273740Y-126869980D01*
G37*
G36*
X169273740Y-126869980D02*
G01*
X168973740Y-126869980D01*
X168973740Y-125119980D01*
X169273740Y-125119980D01*
X169273740Y-126869980D01*
G37*
G36*
X167773740Y-126869980D02*
G01*
X167473740Y-126869980D01*
X167473740Y-125119980D01*
X167773740Y-125119980D01*
X167773740Y-126869980D01*
G37*
G36*
X166773740Y-126869980D02*
G01*
X166473740Y-126869980D01*
X166473740Y-125119980D01*
X166773740Y-125119980D01*
X166773740Y-126869980D01*
G37*
G36*
X166273740Y-126869980D02*
G01*
X165973740Y-126869980D01*
X165973740Y-125119980D01*
X166273740Y-125119980D01*
X166273740Y-126869980D01*
G37*
G36*
X167273740Y-126869980D02*
G01*
X166973740Y-126869980D01*
X166973740Y-125119980D01*
X167273740Y-125119980D01*
X167273740Y-126869980D01*
G37*
G36*
X165773740Y-126869980D02*
G01*
X165473740Y-126869980D01*
X165473740Y-125119980D01*
X165773740Y-125119980D01*
X165773740Y-126869980D01*
G37*
G36*
X184023740Y-134419980D02*
G01*
X183723740Y-134419980D01*
X183723740Y-132669980D01*
X184023740Y-132669980D01*
X184023740Y-134419980D01*
G37*
G36*
X183023740Y-134419980D02*
G01*
X182723740Y-134419980D01*
X182723740Y-132669980D01*
X183023740Y-132669980D01*
X183023740Y-134419980D01*
G37*
G36*
X182523740Y-134419980D02*
G01*
X182223740Y-134419980D01*
X182223740Y-132669980D01*
X182523740Y-132669980D01*
X182523740Y-134419980D01*
G37*
G36*
X183523740Y-134419980D02*
G01*
X183223740Y-134419980D01*
X183223740Y-132669980D01*
X183523740Y-132669980D01*
X183523740Y-134419980D01*
G37*
G36*
X182023740Y-134419980D02*
G01*
X181723740Y-134419980D01*
X181723740Y-132669980D01*
X182023740Y-132669980D01*
X182023740Y-134419980D01*
G37*
G36*
X181023740Y-134419980D02*
G01*
X180723740Y-134419980D01*
X180723740Y-132669980D01*
X181023740Y-132669980D01*
X181023740Y-134419980D01*
G37*
G36*
X180523740Y-134419980D02*
G01*
X180223740Y-134419980D01*
X180223740Y-132669980D01*
X180523740Y-132669980D01*
X180523740Y-134419980D01*
G37*
G36*
X181523740Y-134419980D02*
G01*
X181223740Y-134419980D01*
X181223740Y-132669980D01*
X181523740Y-132669980D01*
X181523740Y-134419980D01*
G37*
G36*
X180023740Y-134419980D02*
G01*
X179723740Y-134419980D01*
X179723740Y-132669980D01*
X180023740Y-132669980D01*
X180023740Y-134419980D01*
G37*
G36*
X179023740Y-134419980D02*
G01*
X178723740Y-134419980D01*
X178723740Y-132669980D01*
X179023740Y-132669980D01*
X179023740Y-134419980D01*
G37*
G36*
X178523740Y-134419980D02*
G01*
X178223740Y-134419980D01*
X178223740Y-132669980D01*
X178523740Y-132669980D01*
X178523740Y-134419980D01*
G37*
G36*
X179523740Y-134419980D02*
G01*
X179223740Y-134419980D01*
X179223740Y-132669980D01*
X179523740Y-132669980D01*
X179523740Y-134419980D01*
G37*
G36*
X178023740Y-134419980D02*
G01*
X177723740Y-134419980D01*
X177723740Y-132669980D01*
X178023740Y-132669980D01*
X178023740Y-134419980D01*
G37*
G36*
X177023740Y-134419980D02*
G01*
X176723740Y-134419980D01*
X176723740Y-132669980D01*
X177023740Y-132669980D01*
X177023740Y-134419980D01*
G37*
G36*
X176523740Y-134419980D02*
G01*
X176223740Y-134419980D01*
X176223740Y-132669980D01*
X176523740Y-132669980D01*
X176523740Y-134419980D01*
G37*
G36*
X177523740Y-134419980D02*
G01*
X177223740Y-134419980D01*
X177223740Y-132669980D01*
X177523740Y-132669980D01*
X177523740Y-134419980D01*
G37*
G36*
X176023740Y-134419980D02*
G01*
X175723740Y-134419980D01*
X175723740Y-132669980D01*
X176023740Y-132669980D01*
X176023740Y-134419980D01*
G37*
G36*
X175023740Y-134419980D02*
G01*
X174723740Y-134419980D01*
X174723740Y-132669980D01*
X175023740Y-132669980D01*
X175023740Y-134419980D01*
G37*
G36*
X174523740Y-134419980D02*
G01*
X174223740Y-134419980D01*
X174223740Y-132669980D01*
X174523740Y-132669980D01*
X174523740Y-134419980D01*
G37*
G36*
X175523740Y-134419980D02*
G01*
X175223740Y-134419980D01*
X175223740Y-132669980D01*
X175523740Y-132669980D01*
X175523740Y-134419980D01*
G37*
G36*
X174023740Y-134419980D02*
G01*
X173723740Y-134419980D01*
X173723740Y-132669980D01*
X174023740Y-132669980D01*
X174023740Y-134419980D01*
G37*
G36*
X173523740Y-134419980D02*
G01*
X173223740Y-134419980D01*
X173223740Y-132669980D01*
X173523740Y-132669980D01*
X173523740Y-134419980D01*
G37*
G36*
X171023740Y-134419980D02*
G01*
X170723740Y-134419980D01*
X170723740Y-132669980D01*
X171023740Y-132669980D01*
X171023740Y-134419980D01*
G37*
G36*
X170523740Y-134419980D02*
G01*
X170223740Y-134419980D01*
X170223740Y-132669980D01*
X170523740Y-132669980D01*
X170523740Y-134419980D01*
G37*
G36*
X170023740Y-134419980D02*
G01*
X169723740Y-134419980D01*
X169723740Y-132669980D01*
X170023740Y-132669980D01*
X170023740Y-134419980D01*
G37*
G36*
X169023740Y-134419980D02*
G01*
X168723740Y-134419980D01*
X168723740Y-132669980D01*
X169023740Y-132669980D01*
X169023740Y-134419980D01*
G37*
G36*
X168523740Y-134419980D02*
G01*
X168223740Y-134419980D01*
X168223740Y-132669980D01*
X168523740Y-132669980D01*
X168523740Y-134419980D01*
G37*
G36*
X169523740Y-134419980D02*
G01*
X169223740Y-134419980D01*
X169223740Y-132669980D01*
X169523740Y-132669980D01*
X169523740Y-134419980D01*
G37*
G36*
X168023740Y-134419980D02*
G01*
X167723740Y-134419980D01*
X167723740Y-132669980D01*
X168023740Y-132669980D01*
X168023740Y-134419980D01*
G37*
G36*
X167023740Y-134419980D02*
G01*
X166723740Y-134419980D01*
X166723740Y-132669980D01*
X167023740Y-132669980D01*
X167023740Y-134419980D01*
G37*
G36*
X166523740Y-134419980D02*
G01*
X166223740Y-134419980D01*
X166223740Y-132669980D01*
X166523740Y-132669980D01*
X166523740Y-134419980D01*
G37*
G36*
X167523740Y-134419980D02*
G01*
X167223740Y-134419980D01*
X167223740Y-132669980D01*
X167523740Y-132669980D01*
X167523740Y-134419980D01*
G37*
G36*
X166023740Y-134419980D02*
G01*
X165723740Y-134419980D01*
X165723740Y-132669980D01*
X166023740Y-132669980D01*
X166023740Y-134419980D01*
G37*
G36*
X165523740Y-134419980D02*
G01*
X165223740Y-134419980D01*
X165223740Y-132669980D01*
X165523740Y-132669980D01*
X165523740Y-134419980D01*
G37*
D11*
X109663740Y-69269980D03*
X130363740Y-69269980D03*
X109663740Y-101019980D03*
X130363740Y-101019980D03*
X109663740Y-132769980D03*
X130363740Y-132769980D03*
X164273740Y-69269980D03*
X184973740Y-69269980D03*
X164273740Y-101019980D03*
X184973740Y-101019980D03*
X164273740Y-132769980D03*
X184973740Y-132769980D03*
M02*
