G04 #@! TF.GenerationSoftware,KiCad,Pcbnew,(5.1.2)-2*
G04 #@! TF.CreationDate,2021-03-31T16:43:33-04:00*
G04 #@! TF.ProjectId,MicroMod_tinycar_panelized,4d696372-6f4d-46f6-945f-74696e796361,rev?*
G04 #@! TF.SameCoordinates,Original*
G04 #@! TF.FileFunction,Legend,Bot*
G04 #@! TF.FilePolarity,Positive*
%FSLAX46Y46*%
G04 Gerber Fmt 4.6, Leading zero omitted, Abs format (unit mm)*
G04 Created by KiCad (PCBNEW (5.1.2)-2) date 2021-03-31 16:43:33*
%MOMM*%
%LPD*%
G04 APERTURE LIST*
%ADD10C,0.120000*%
%ADD11C,0.152400*%
%ADD12C,0.150000*%
%ADD13C,0.060960*%
G04 APERTURE END LIST*
D10*
X141446000Y-131170000D02*
X137446000Y-131170000D01*
X141446000Y-127170000D02*
X141446000Y-131170000D01*
X137446000Y-127170000D02*
X141446000Y-127170000D01*
X137446000Y-131170000D02*
X137446000Y-127170000D01*
X136246000Y-126170000D02*
X143446000Y-126170000D01*
X136246000Y-132170000D02*
X143446000Y-132170000D01*
X143446000Y-132170000D02*
X143446000Y-126170000D01*
X136246000Y-132170000D02*
X136246000Y-126170000D01*
X141446000Y-99420000D02*
X137446000Y-99420000D01*
X141446000Y-95420000D02*
X141446000Y-99420000D01*
X137446000Y-95420000D02*
X141446000Y-95420000D01*
X137446000Y-99420000D02*
X137446000Y-95420000D01*
X136246000Y-94420000D02*
X143446000Y-94420000D01*
X136246000Y-100420000D02*
X143446000Y-100420000D01*
X143446000Y-100420000D02*
X143446000Y-94420000D01*
X136246000Y-100420000D02*
X136246000Y-94420000D01*
X141446000Y-67670000D02*
X137446000Y-67670000D01*
X141446000Y-63670000D02*
X141446000Y-67670000D01*
X137446000Y-63670000D02*
X141446000Y-63670000D01*
X137446000Y-67670000D02*
X137446000Y-63670000D01*
X136246000Y-62670000D02*
X143446000Y-62670000D01*
X136246000Y-68670000D02*
X143446000Y-68670000D01*
X143446000Y-68670000D02*
X143446000Y-62670000D01*
X136246000Y-68670000D02*
X136246000Y-62670000D01*
X153194000Y-127159000D02*
X157194000Y-127159000D01*
X153194000Y-131159000D02*
X153194000Y-127159000D01*
X157194000Y-131159000D02*
X153194000Y-131159000D01*
X157194000Y-127159000D02*
X157194000Y-131159000D01*
X158394000Y-132159000D02*
X151194000Y-132159000D01*
X158394000Y-126159000D02*
X151194000Y-126159000D01*
X151194000Y-126159000D02*
X151194000Y-132159000D01*
X158394000Y-126159000D02*
X158394000Y-132159000D01*
X153194000Y-95409000D02*
X157194000Y-95409000D01*
X153194000Y-99409000D02*
X153194000Y-95409000D01*
X157194000Y-99409000D02*
X153194000Y-99409000D01*
X157194000Y-95409000D02*
X157194000Y-99409000D01*
X158394000Y-100409000D02*
X151194000Y-100409000D01*
X158394000Y-94409000D02*
X151194000Y-94409000D01*
X151194000Y-94409000D02*
X151194000Y-100409000D01*
X158394000Y-94409000D02*
X158394000Y-100409000D01*
X153194000Y-63659000D02*
X157194000Y-63659000D01*
X153194000Y-67659000D02*
X153194000Y-63659000D01*
X157194000Y-67659000D02*
X153194000Y-67659000D01*
X157194000Y-63659000D02*
X157194000Y-67659000D01*
X158394000Y-68659000D02*
X151194000Y-68659000D01*
X158394000Y-62659000D02*
X151194000Y-62659000D01*
X151194000Y-62659000D02*
X151194000Y-68659000D01*
X158394000Y-62659000D02*
X158394000Y-68659000D01*
D11*
X109013740Y-67269980D02*
X109013740Y-62269980D01*
X109013740Y-62269980D02*
X110513740Y-62269980D01*
X129513740Y-62269980D02*
X131013740Y-62269980D01*
X131013740Y-67269980D02*
X131013740Y-62269980D01*
X109013740Y-99019980D02*
X109013740Y-94019980D01*
X109013740Y-94019980D02*
X110513740Y-94019980D01*
X129513740Y-94019980D02*
X131013740Y-94019980D01*
X131013740Y-99019980D02*
X131013740Y-94019980D01*
X109013740Y-130769980D02*
X109013740Y-125769980D01*
X109013740Y-125769980D02*
X110513740Y-125769980D01*
X129513740Y-125769980D02*
X131013740Y-125769980D01*
X131013740Y-130769980D02*
X131013740Y-125769980D01*
X163623740Y-67269980D02*
X163623740Y-62269980D01*
X163623740Y-62269980D02*
X165123740Y-62269980D01*
X184123740Y-62269980D02*
X185623740Y-62269980D01*
X185623740Y-67269980D02*
X185623740Y-62269980D01*
X163623740Y-99019980D02*
X163623740Y-94019980D01*
X163623740Y-94019980D02*
X165123740Y-94019980D01*
X184123740Y-94019980D02*
X185623740Y-94019980D01*
X185623740Y-99019980D02*
X185623740Y-94019980D01*
X163623740Y-130769980D02*
X163623740Y-125769980D01*
X163623740Y-125769980D02*
X165123740Y-125769980D01*
X184123740Y-125769980D02*
X185623740Y-125769980D01*
X185623740Y-130769980D02*
X185623740Y-125769980D01*
D12*
X145287904Y-126347380D02*
X145287904Y-127156904D01*
X145240285Y-127252142D01*
X145192666Y-127299761D01*
X145097428Y-127347380D01*
X144906952Y-127347380D01*
X144811714Y-127299761D01*
X144764095Y-127252142D01*
X144716476Y-127156904D01*
X144716476Y-126347380D01*
X144335523Y-126347380D02*
X143716476Y-126347380D01*
X144049809Y-126728333D01*
X143906952Y-126728333D01*
X143811714Y-126775952D01*
X143764095Y-126823571D01*
X143716476Y-126918809D01*
X143716476Y-127156904D01*
X143764095Y-127252142D01*
X143811714Y-127299761D01*
X143906952Y-127347380D01*
X144192666Y-127347380D01*
X144287904Y-127299761D01*
X144335523Y-127252142D01*
X145287904Y-94597380D02*
X145287904Y-95406904D01*
X145240285Y-95502142D01*
X145192666Y-95549761D01*
X145097428Y-95597380D01*
X144906952Y-95597380D01*
X144811714Y-95549761D01*
X144764095Y-95502142D01*
X144716476Y-95406904D01*
X144716476Y-94597380D01*
X144335523Y-94597380D02*
X143716476Y-94597380D01*
X144049809Y-94978333D01*
X143906952Y-94978333D01*
X143811714Y-95025952D01*
X143764095Y-95073571D01*
X143716476Y-95168809D01*
X143716476Y-95406904D01*
X143764095Y-95502142D01*
X143811714Y-95549761D01*
X143906952Y-95597380D01*
X144192666Y-95597380D01*
X144287904Y-95549761D01*
X144335523Y-95502142D01*
X145287904Y-62847380D02*
X145287904Y-63656904D01*
X145240285Y-63752142D01*
X145192666Y-63799761D01*
X145097428Y-63847380D01*
X144906952Y-63847380D01*
X144811714Y-63799761D01*
X144764095Y-63752142D01*
X144716476Y-63656904D01*
X144716476Y-62847380D01*
X144335523Y-62847380D02*
X143716476Y-62847380D01*
X144049809Y-63228333D01*
X143906952Y-63228333D01*
X143811714Y-63275952D01*
X143764095Y-63323571D01*
X143716476Y-63418809D01*
X143716476Y-63656904D01*
X143764095Y-63752142D01*
X143811714Y-63799761D01*
X143906952Y-63847380D01*
X144192666Y-63847380D01*
X144287904Y-63799761D01*
X144335523Y-63752142D01*
X150748904Y-126325380D02*
X150748904Y-127134904D01*
X150701285Y-127230142D01*
X150653666Y-127277761D01*
X150558428Y-127325380D01*
X150367952Y-127325380D01*
X150272714Y-127277761D01*
X150225095Y-127230142D01*
X150177476Y-127134904D01*
X150177476Y-126325380D01*
X149272714Y-126325380D02*
X149463190Y-126325380D01*
X149558428Y-126373000D01*
X149606047Y-126420619D01*
X149701285Y-126563476D01*
X149748904Y-126753952D01*
X149748904Y-127134904D01*
X149701285Y-127230142D01*
X149653666Y-127277761D01*
X149558428Y-127325380D01*
X149367952Y-127325380D01*
X149272714Y-127277761D01*
X149225095Y-127230142D01*
X149177476Y-127134904D01*
X149177476Y-126896809D01*
X149225095Y-126801571D01*
X149272714Y-126753952D01*
X149367952Y-126706333D01*
X149558428Y-126706333D01*
X149653666Y-126753952D01*
X149701285Y-126801571D01*
X149748904Y-126896809D01*
X150748904Y-94575380D02*
X150748904Y-95384904D01*
X150701285Y-95480142D01*
X150653666Y-95527761D01*
X150558428Y-95575380D01*
X150367952Y-95575380D01*
X150272714Y-95527761D01*
X150225095Y-95480142D01*
X150177476Y-95384904D01*
X150177476Y-94575380D01*
X149272714Y-94575380D02*
X149463190Y-94575380D01*
X149558428Y-94623000D01*
X149606047Y-94670619D01*
X149701285Y-94813476D01*
X149748904Y-95003952D01*
X149748904Y-95384904D01*
X149701285Y-95480142D01*
X149653666Y-95527761D01*
X149558428Y-95575380D01*
X149367952Y-95575380D01*
X149272714Y-95527761D01*
X149225095Y-95480142D01*
X149177476Y-95384904D01*
X149177476Y-95146809D01*
X149225095Y-95051571D01*
X149272714Y-95003952D01*
X149367952Y-94956333D01*
X149558428Y-94956333D01*
X149653666Y-95003952D01*
X149701285Y-95051571D01*
X149748904Y-95146809D01*
X150748904Y-62825380D02*
X150748904Y-63634904D01*
X150701285Y-63730142D01*
X150653666Y-63777761D01*
X150558428Y-63825380D01*
X150367952Y-63825380D01*
X150272714Y-63777761D01*
X150225095Y-63730142D01*
X150177476Y-63634904D01*
X150177476Y-62825380D01*
X149272714Y-62825380D02*
X149463190Y-62825380D01*
X149558428Y-62873000D01*
X149606047Y-62920619D01*
X149701285Y-63063476D01*
X149748904Y-63253952D01*
X149748904Y-63634904D01*
X149701285Y-63730142D01*
X149653666Y-63777761D01*
X149558428Y-63825380D01*
X149367952Y-63825380D01*
X149272714Y-63777761D01*
X149225095Y-63730142D01*
X149177476Y-63634904D01*
X149177476Y-63396809D01*
X149225095Y-63301571D01*
X149272714Y-63253952D01*
X149367952Y-63206333D01*
X149558428Y-63206333D01*
X149653666Y-63253952D01*
X149701285Y-63301571D01*
X149748904Y-63396809D01*
D13*
X121789018Y-63979858D02*
X121237475Y-64186687D01*
X121789018Y-64393515D01*
X120892761Y-64462458D02*
X120892761Y-63738558D01*
X120479104Y-64462458D01*
X120479104Y-63738558D01*
X119824147Y-64462458D02*
X119824147Y-64083272D01*
X119858618Y-64014330D01*
X119927561Y-63979858D01*
X120065447Y-63979858D01*
X120134390Y-64014330D01*
X119824147Y-64427987D02*
X119893090Y-64462458D01*
X120065447Y-64462458D01*
X120134390Y-64427987D01*
X120168861Y-64359044D01*
X120168861Y-64290101D01*
X120134390Y-64221158D01*
X120065447Y-64186687D01*
X119893090Y-64186687D01*
X119824147Y-64152215D01*
X119479432Y-64462458D02*
X119479432Y-63979858D01*
X119479432Y-64048801D02*
X119444961Y-64014330D01*
X119376018Y-63979858D01*
X119272604Y-63979858D01*
X119203661Y-64014330D01*
X119169190Y-64083272D01*
X119169190Y-64462458D01*
X119169190Y-64083272D02*
X119134718Y-64014330D01*
X119065775Y-63979858D01*
X118962361Y-63979858D01*
X118893418Y-64014330D01*
X118858947Y-64083272D01*
X118858947Y-64462458D01*
X118238461Y-64427987D02*
X118307404Y-64462458D01*
X118445290Y-64462458D01*
X118514232Y-64427987D01*
X118548704Y-64359044D01*
X118548704Y-64083272D01*
X118514232Y-64014330D01*
X118445290Y-63979858D01*
X118307404Y-63979858D01*
X118238461Y-64014330D01*
X118203990Y-64083272D01*
X118203990Y-64152215D01*
X118548704Y-64221158D01*
X121789018Y-95729858D02*
X121237475Y-95936687D01*
X121789018Y-96143515D01*
X120892761Y-96212458D02*
X120892761Y-95488558D01*
X120479104Y-96212458D01*
X120479104Y-95488558D01*
X119824147Y-96212458D02*
X119824147Y-95833272D01*
X119858618Y-95764330D01*
X119927561Y-95729858D01*
X120065447Y-95729858D01*
X120134390Y-95764330D01*
X119824147Y-96177987D02*
X119893090Y-96212458D01*
X120065447Y-96212458D01*
X120134390Y-96177987D01*
X120168861Y-96109044D01*
X120168861Y-96040101D01*
X120134390Y-95971158D01*
X120065447Y-95936687D01*
X119893090Y-95936687D01*
X119824147Y-95902215D01*
X119479432Y-96212458D02*
X119479432Y-95729858D01*
X119479432Y-95798801D02*
X119444961Y-95764330D01*
X119376018Y-95729858D01*
X119272604Y-95729858D01*
X119203661Y-95764330D01*
X119169190Y-95833272D01*
X119169190Y-96212458D01*
X119169190Y-95833272D02*
X119134718Y-95764330D01*
X119065775Y-95729858D01*
X118962361Y-95729858D01*
X118893418Y-95764330D01*
X118858947Y-95833272D01*
X118858947Y-96212458D01*
X118238461Y-96177987D02*
X118307404Y-96212458D01*
X118445290Y-96212458D01*
X118514232Y-96177987D01*
X118548704Y-96109044D01*
X118548704Y-95833272D01*
X118514232Y-95764330D01*
X118445290Y-95729858D01*
X118307404Y-95729858D01*
X118238461Y-95764330D01*
X118203990Y-95833272D01*
X118203990Y-95902215D01*
X118548704Y-95971158D01*
X121789018Y-127479858D02*
X121237475Y-127686687D01*
X121789018Y-127893515D01*
X120892761Y-127962458D02*
X120892761Y-127238558D01*
X120479104Y-127962458D01*
X120479104Y-127238558D01*
X119824147Y-127962458D02*
X119824147Y-127583272D01*
X119858618Y-127514330D01*
X119927561Y-127479858D01*
X120065447Y-127479858D01*
X120134390Y-127514330D01*
X119824147Y-127927987D02*
X119893090Y-127962458D01*
X120065447Y-127962458D01*
X120134390Y-127927987D01*
X120168861Y-127859044D01*
X120168861Y-127790101D01*
X120134390Y-127721158D01*
X120065447Y-127686687D01*
X119893090Y-127686687D01*
X119824147Y-127652215D01*
X119479432Y-127962458D02*
X119479432Y-127479858D01*
X119479432Y-127548801D02*
X119444961Y-127514330D01*
X119376018Y-127479858D01*
X119272604Y-127479858D01*
X119203661Y-127514330D01*
X119169190Y-127583272D01*
X119169190Y-127962458D01*
X119169190Y-127583272D02*
X119134718Y-127514330D01*
X119065775Y-127479858D01*
X118962361Y-127479858D01*
X118893418Y-127514330D01*
X118858947Y-127583272D01*
X118858947Y-127962458D01*
X118238461Y-127927987D02*
X118307404Y-127962458D01*
X118445290Y-127962458D01*
X118514232Y-127927987D01*
X118548704Y-127859044D01*
X118548704Y-127583272D01*
X118514232Y-127514330D01*
X118445290Y-127479858D01*
X118307404Y-127479858D01*
X118238461Y-127514330D01*
X118203990Y-127583272D01*
X118203990Y-127652215D01*
X118548704Y-127721158D01*
X176399018Y-63979858D02*
X175847475Y-64186687D01*
X176399018Y-64393515D01*
X175502761Y-64462458D02*
X175502761Y-63738558D01*
X175089104Y-64462458D01*
X175089104Y-63738558D01*
X174434147Y-64462458D02*
X174434147Y-64083272D01*
X174468618Y-64014330D01*
X174537561Y-63979858D01*
X174675447Y-63979858D01*
X174744390Y-64014330D01*
X174434147Y-64427987D02*
X174503090Y-64462458D01*
X174675447Y-64462458D01*
X174744390Y-64427987D01*
X174778861Y-64359044D01*
X174778861Y-64290101D01*
X174744390Y-64221158D01*
X174675447Y-64186687D01*
X174503090Y-64186687D01*
X174434147Y-64152215D01*
X174089432Y-64462458D02*
X174089432Y-63979858D01*
X174089432Y-64048801D02*
X174054961Y-64014330D01*
X173986018Y-63979858D01*
X173882604Y-63979858D01*
X173813661Y-64014330D01*
X173779190Y-64083272D01*
X173779190Y-64462458D01*
X173779190Y-64083272D02*
X173744718Y-64014330D01*
X173675775Y-63979858D01*
X173572361Y-63979858D01*
X173503418Y-64014330D01*
X173468947Y-64083272D01*
X173468947Y-64462458D01*
X172848461Y-64427987D02*
X172917404Y-64462458D01*
X173055290Y-64462458D01*
X173124232Y-64427987D01*
X173158704Y-64359044D01*
X173158704Y-64083272D01*
X173124232Y-64014330D01*
X173055290Y-63979858D01*
X172917404Y-63979858D01*
X172848461Y-64014330D01*
X172813990Y-64083272D01*
X172813990Y-64152215D01*
X173158704Y-64221158D01*
X176399018Y-95729858D02*
X175847475Y-95936687D01*
X176399018Y-96143515D01*
X175502761Y-96212458D02*
X175502761Y-95488558D01*
X175089104Y-96212458D01*
X175089104Y-95488558D01*
X174434147Y-96212458D02*
X174434147Y-95833272D01*
X174468618Y-95764330D01*
X174537561Y-95729858D01*
X174675447Y-95729858D01*
X174744390Y-95764330D01*
X174434147Y-96177987D02*
X174503090Y-96212458D01*
X174675447Y-96212458D01*
X174744390Y-96177987D01*
X174778861Y-96109044D01*
X174778861Y-96040101D01*
X174744390Y-95971158D01*
X174675447Y-95936687D01*
X174503090Y-95936687D01*
X174434147Y-95902215D01*
X174089432Y-96212458D02*
X174089432Y-95729858D01*
X174089432Y-95798801D02*
X174054961Y-95764330D01*
X173986018Y-95729858D01*
X173882604Y-95729858D01*
X173813661Y-95764330D01*
X173779190Y-95833272D01*
X173779190Y-96212458D01*
X173779190Y-95833272D02*
X173744718Y-95764330D01*
X173675775Y-95729858D01*
X173572361Y-95729858D01*
X173503418Y-95764330D01*
X173468947Y-95833272D01*
X173468947Y-96212458D01*
X172848461Y-96177987D02*
X172917404Y-96212458D01*
X173055290Y-96212458D01*
X173124232Y-96177987D01*
X173158704Y-96109044D01*
X173158704Y-95833272D01*
X173124232Y-95764330D01*
X173055290Y-95729858D01*
X172917404Y-95729858D01*
X172848461Y-95764330D01*
X172813990Y-95833272D01*
X172813990Y-95902215D01*
X173158704Y-95971158D01*
X176399018Y-127479858D02*
X175847475Y-127686687D01*
X176399018Y-127893515D01*
X175502761Y-127962458D02*
X175502761Y-127238558D01*
X175089104Y-127962458D01*
X175089104Y-127238558D01*
X174434147Y-127962458D02*
X174434147Y-127583272D01*
X174468618Y-127514330D01*
X174537561Y-127479858D01*
X174675447Y-127479858D01*
X174744390Y-127514330D01*
X174434147Y-127927987D02*
X174503090Y-127962458D01*
X174675447Y-127962458D01*
X174744390Y-127927987D01*
X174778861Y-127859044D01*
X174778861Y-127790101D01*
X174744390Y-127721158D01*
X174675447Y-127686687D01*
X174503090Y-127686687D01*
X174434147Y-127652215D01*
X174089432Y-127962458D02*
X174089432Y-127479858D01*
X174089432Y-127548801D02*
X174054961Y-127514330D01*
X173986018Y-127479858D01*
X173882604Y-127479858D01*
X173813661Y-127514330D01*
X173779190Y-127583272D01*
X173779190Y-127962458D01*
X173779190Y-127583272D02*
X173744718Y-127514330D01*
X173675775Y-127479858D01*
X173572361Y-127479858D01*
X173503418Y-127514330D01*
X173468947Y-127583272D01*
X173468947Y-127962458D01*
X172848461Y-127927987D02*
X172917404Y-127962458D01*
X173055290Y-127962458D01*
X173124232Y-127927987D01*
X173158704Y-127859044D01*
X173158704Y-127583272D01*
X173124232Y-127514330D01*
X173055290Y-127479858D01*
X172917404Y-127479858D01*
X172848461Y-127514330D01*
X172813990Y-127583272D01*
X172813990Y-127652215D01*
X173158704Y-127721158D01*
M02*
