G04 #@! TF.GenerationSoftware,KiCad,Pcbnew,(5.1.2)-2*
G04 #@! TF.CreationDate,2021-03-31T16:43:33-04:00*
G04 #@! TF.ProjectId,MicroMod_tinycar_panelized,4d696372-6f4d-46f6-945f-74696e796361,rev?*
G04 #@! TF.SameCoordinates,Original*
G04 #@! TF.FileFunction,Profile,NP*
%FSLAX46Y46*%
G04 Gerber Fmt 4.6, Leading zero omitted, Abs format (unit mm)*
G04 Created by KiCad (PCBNEW (5.1.2)-2) date 2021-03-31 16:43:33*
%MOMM*%
%LPD*%
G04 APERTURE LIST*
%ADD10C,0.050000*%
G04 APERTURE END LIST*
D10*
X161290000Y-101600000D02*
X161290000Y-90805000D01*
X106680000Y-117475000D02*
X106680000Y-106680000D01*
X161290000Y-53975000D02*
X161290000Y-43180000D01*
X161290000Y-133350000D02*
X161290000Y-122555000D01*
X106680000Y-69850000D02*
X106680000Y-59055000D01*
X106680000Y-101600000D02*
X106680000Y-90805000D01*
X190500000Y-134620000D02*
X196850000Y-134620000D01*
X196850000Y-134620000D02*
X196850000Y-41910000D01*
X190500000Y-122555000D02*
X190500000Y-134620000D01*
X190500000Y-59055000D02*
X190500000Y-85725000D01*
X190500000Y-90805000D02*
X190500000Y-117475000D01*
X196850000Y-41910000D02*
X190500000Y-41910000D01*
X190500000Y-41910000D02*
X190500000Y-53975000D01*
X104140000Y-85725000D02*
X104140000Y-59055000D01*
X104140000Y-117475000D02*
X104140000Y-90805000D01*
X104140000Y-134620000D02*
X104140000Y-122555000D01*
X97790000Y-134620000D02*
X104140000Y-134620000D01*
X97790000Y-41910000D02*
X97790000Y-134620000D01*
X104140000Y-41910000D02*
X97790000Y-41910000D01*
X104140000Y-53975000D02*
X104140000Y-41910000D01*
X177165000Y-105410000D02*
G75*
G02X177165000Y-102870000I0J1270000D01*
G01*
X172085000Y-102870000D02*
G75*
G02X172085000Y-105410000I0J-1270000D01*
G01*
X177165000Y-105410000D02*
X186690000Y-105410000D01*
X187960000Y-122555000D02*
G75*
G02X190500000Y-122555000I1270000J0D01*
G01*
X162560000Y-134620000D02*
G75*
G02X161290000Y-133350000I0J1270000D01*
G01*
X187960000Y-106680000D02*
X187960000Y-117475000D01*
X161290000Y-117475000D02*
X161290000Y-106680000D01*
X187960000Y-133350000D02*
G75*
G02X186690000Y-134620000I-1270000J0D01*
G01*
X172085000Y-134620000D02*
X162560000Y-134620000D01*
X187960000Y-122555000D02*
X187960000Y-133350000D01*
X186690000Y-105410000D02*
G75*
G02X187960000Y-106680000I0J-1270000D01*
G01*
X161290000Y-106680000D02*
G75*
G02X162560000Y-105410000I1270000J0D01*
G01*
X190500000Y-117475000D02*
G75*
G02X187960000Y-117475000I-1270000J0D01*
G01*
X162560000Y-105410000D02*
X172085000Y-105410000D01*
X177165000Y-73660000D02*
X186690000Y-73660000D01*
X186690000Y-102870000D02*
X177165000Y-102870000D01*
X172085000Y-71120000D02*
G75*
G02X172085000Y-73660000I0J-1270000D01*
G01*
X177165000Y-73660000D02*
G75*
G02X177165000Y-71120000I0J1270000D01*
G01*
X161290000Y-74930000D02*
G75*
G02X162560000Y-73660000I1270000J0D01*
G01*
X190500000Y-85725000D02*
G75*
G02X187960000Y-85725000I-1270000J0D01*
G01*
X186690000Y-73660000D02*
G75*
G02X187960000Y-74930000I0J-1270000D01*
G01*
X162560000Y-102870000D02*
G75*
G02X161290000Y-101600000I0J1270000D01*
G01*
X187960000Y-90805000D02*
G75*
G02X190500000Y-90805000I1270000J0D01*
G01*
X187960000Y-74930000D02*
X187960000Y-85725000D01*
X161290000Y-85725000D02*
X161290000Y-74930000D01*
X187960000Y-90805000D02*
X187960000Y-101600000D01*
X187960000Y-101600000D02*
G75*
G02X186690000Y-102870000I-1270000J0D01*
G01*
X172085000Y-102870000D02*
X162560000Y-102870000D01*
X162560000Y-73660000D02*
X172085000Y-73660000D01*
X161290000Y-43180000D02*
G75*
G02X162560000Y-41910000I1270000J0D01*
G01*
X177800000Y-41910000D02*
X186690000Y-41910000D01*
X162560000Y-71120000D02*
G75*
G02X161290000Y-69850000I0J1270000D01*
G01*
X186690000Y-71120000D02*
X177165000Y-71120000D01*
X186690000Y-41910000D02*
G75*
G02X187960000Y-43180000I0J-1270000D01*
G01*
X187960000Y-69850000D02*
G75*
G02X186690000Y-71120000I-1270000J0D01*
G01*
X187960000Y-59055000D02*
G75*
G02X190500000Y-59055000I1270000J0D01*
G01*
X190500000Y-53975000D02*
G75*
G02X187960000Y-53975000I-1270000J0D01*
G01*
X172085000Y-71120000D02*
X162560000Y-71120000D01*
X187960000Y-59055000D02*
X187960000Y-69850000D01*
X162560000Y-41910000D02*
X177800000Y-41910000D01*
X187960000Y-43180000D02*
X187960000Y-53975000D01*
X161290000Y-69850000D02*
X161290000Y-59055000D01*
X186690000Y-134620000D02*
X172085000Y-134620000D01*
X104140000Y-122555000D02*
G75*
G02X106680000Y-122555000I1270000J0D01*
G01*
X122555000Y-105410000D02*
G75*
G02X122555000Y-102870000I0J1270000D01*
G01*
X158750000Y-133350000D02*
X158750000Y-122555000D01*
X122555000Y-105410000D02*
X132080000Y-105410000D01*
X144780000Y-134620000D02*
X157480000Y-134620000D01*
X157480000Y-105410000D02*
X149860000Y-105410000D01*
X149860000Y-105410000D02*
G75*
G02X149860000Y-102870000I0J1270000D01*
G01*
X144780000Y-102870000D02*
G75*
G02X144780000Y-105410000I0J-1270000D01*
G01*
X117475000Y-102870000D02*
G75*
G02X117475000Y-105410000I0J-1270000D01*
G01*
X106680000Y-117475000D02*
G75*
G02X104140000Y-117475000I-1270000J0D01*
G01*
X158750000Y-122555000D02*
G75*
G02X161290000Y-122555000I1270000J0D01*
G01*
X161290000Y-117475000D02*
G75*
G02X158750000Y-117475000I-1270000J0D01*
G01*
X135890000Y-122555000D02*
X135890000Y-133350000D01*
X132080000Y-134620000D02*
X117475000Y-134620000D01*
X133350000Y-122555000D02*
G75*
G02X135890000Y-122555000I1270000J0D01*
G01*
X135890000Y-106680000D02*
X135890000Y-117475000D01*
X158750000Y-133350000D02*
G75*
G02X157480000Y-134620000I-1270000J0D01*
G01*
X135890000Y-117475000D02*
G75*
G02X133350000Y-117475000I-1270000J0D01*
G01*
X158750000Y-117475000D02*
X158750000Y-106680000D01*
X106680000Y-106680000D02*
G75*
G02X107950000Y-105410000I1270000J0D01*
G01*
X132080000Y-105410000D02*
G75*
G02X133350000Y-106680000I0J-1270000D01*
G01*
X107950000Y-134620000D02*
G75*
G02X106680000Y-133350000I0J1270000D01*
G01*
X135890000Y-106680000D02*
G75*
G02X137160000Y-105410000I1270000J0D01*
G01*
X117475000Y-134620000D02*
X107950000Y-134620000D01*
X133350000Y-106680000D02*
X133350000Y-117475000D01*
X137160000Y-134620000D02*
X144780000Y-134620000D01*
X107950000Y-105410000D02*
X117475000Y-105410000D01*
X133350000Y-122555000D02*
X133350000Y-133350000D01*
X137160000Y-134620000D02*
G75*
G02X135890000Y-133350000I0J1270000D01*
G01*
X106680000Y-133350000D02*
X106680000Y-122555000D01*
X133350000Y-133350000D02*
G75*
G02X132080000Y-134620000I-1270000J0D01*
G01*
X157480000Y-105410000D02*
G75*
G02X158750000Y-106680000I0J-1270000D01*
G01*
X144780000Y-105410000D02*
X137160000Y-105410000D01*
X104140000Y-90805000D02*
G75*
G02X106680000Y-90805000I1270000J0D01*
G01*
X122555000Y-73660000D02*
G75*
G02X122555000Y-71120000I0J1270000D01*
G01*
X158750000Y-101600000D02*
X158750000Y-90805000D01*
X122555000Y-73660000D02*
X132080000Y-73660000D01*
X149860000Y-102870000D02*
X157480000Y-102870000D01*
X157480000Y-73660000D02*
X149860000Y-73660000D01*
X149860000Y-73660000D02*
G75*
G02X149860000Y-71120000I0J1270000D01*
G01*
X144780000Y-71120000D02*
G75*
G02X144780000Y-73660000I0J-1270000D01*
G01*
X117475000Y-71120000D02*
G75*
G02X117475000Y-73660000I0J-1270000D01*
G01*
X106680000Y-85725000D02*
G75*
G02X104140000Y-85725000I-1270000J0D01*
G01*
X158750000Y-90805000D02*
G75*
G02X161290000Y-90805000I1270000J0D01*
G01*
X161290000Y-85725000D02*
G75*
G02X158750000Y-85725000I-1270000J0D01*
G01*
X135890000Y-90805000D02*
X135890000Y-101600000D01*
X132080000Y-102870000D02*
X122555000Y-102870000D01*
X133350000Y-90805000D02*
G75*
G02X135890000Y-90805000I1270000J0D01*
G01*
X135890000Y-74930000D02*
X135890000Y-85725000D01*
X158750000Y-101600000D02*
G75*
G02X157480000Y-102870000I-1270000J0D01*
G01*
X135890000Y-85725000D02*
G75*
G02X133350000Y-85725000I-1270000J0D01*
G01*
X158750000Y-85725000D02*
X158750000Y-74930000D01*
X106680000Y-74930000D02*
G75*
G02X107950000Y-73660000I1270000J0D01*
G01*
X132080000Y-73660000D02*
G75*
G02X133350000Y-74930000I0J-1270000D01*
G01*
X107950000Y-102870000D02*
G75*
G02X106680000Y-101600000I0J1270000D01*
G01*
X135890000Y-74930000D02*
G75*
G02X137160000Y-73660000I1270000J0D01*
G01*
X117475000Y-102870000D02*
X107950000Y-102870000D01*
X133350000Y-74930000D02*
X133350000Y-85725000D01*
X137160000Y-102870000D02*
X144780000Y-102870000D01*
X107950000Y-73660000D02*
X117475000Y-73660000D01*
X133350000Y-90805000D02*
X133350000Y-101600000D01*
X137160000Y-102870000D02*
G75*
G02X135890000Y-101600000I0J1270000D01*
G01*
X106680000Y-85725000D02*
X106680000Y-74930000D01*
X133350000Y-101600000D02*
G75*
G02X132080000Y-102870000I-1270000J0D01*
G01*
X157480000Y-73660000D02*
G75*
G02X158750000Y-74930000I0J-1270000D01*
G01*
X144780000Y-73660000D02*
X137160000Y-73660000D01*
X117475000Y-41910000D02*
X132080000Y-41910000D01*
X104140000Y-59055000D02*
G75*
G02X106680000Y-59055000I1270000J0D01*
G01*
X149860000Y-71120000D02*
X157480000Y-71120000D01*
X106680000Y-53975000D02*
G75*
G02X104140000Y-53975000I-1270000J0D01*
G01*
X158750000Y-69850000D02*
X158750000Y-59055000D01*
X157480000Y-41910000D02*
X144780000Y-41910000D01*
X132080000Y-71120000D02*
X122555000Y-71120000D01*
X135890000Y-53975000D02*
G75*
G02X133350000Y-53975000I-1270000J0D01*
G01*
X106680000Y-43180000D02*
G75*
G02X107950000Y-41910000I1270000J0D01*
G01*
X132080000Y-41910000D02*
G75*
G02X133350000Y-43180000I0J-1270000D01*
G01*
X107950000Y-71120000D02*
G75*
G02X106680000Y-69850000I0J1270000D01*
G01*
X133350000Y-69850000D02*
G75*
G02X132080000Y-71120000I-1270000J0D01*
G01*
X135890000Y-43180000D02*
G75*
G02X137160000Y-41910000I1270000J0D01*
G01*
X157480000Y-41910000D02*
G75*
G02X158750000Y-43180000I0J-1270000D01*
G01*
X117475000Y-71120000D02*
X107950000Y-71120000D01*
X158750000Y-53975000D02*
X158750000Y-43180000D01*
X135890000Y-43180000D02*
X135890000Y-53975000D01*
X107950000Y-41910000D02*
X117475000Y-41910000D01*
X133350000Y-59055000D02*
X133350000Y-69850000D01*
X158750000Y-69850000D02*
G75*
G02X157480000Y-71120000I-1270000J0D01*
G01*
X133350000Y-59055000D02*
G75*
G02X135890000Y-59055000I1270000J0D01*
G01*
X137160000Y-71120000D02*
G75*
G02X135890000Y-69850000I0J1270000D01*
G01*
X133350000Y-43180000D02*
X133350000Y-53975000D01*
X144780000Y-41910000D02*
X137160000Y-41910000D01*
X106680000Y-53975000D02*
X106680000Y-43180000D01*
X137160000Y-71120000D02*
X144780000Y-71120000D01*
X135890000Y-59055000D02*
X135890000Y-69850000D01*
X158750000Y-59055000D02*
G75*
G02X161290000Y-59055000I1270000J0D01*
G01*
X161290000Y-53975000D02*
G75*
G02X158750000Y-53975000I-1270000J0D01*
G01*
M02*
