M48
; DRILL file {KiCad (5.1.2)-2} date 3/31/2021 4:35:05 PM
; FORMAT={-:-/ absolute / metric / decimal}
; #@! TF.CreationDate,2021-03-31T16:35:05-04:00
; #@! TF.GenerationSoftware,Kicad,Pcbnew,(5.1.2)-2
; #@! TF.FileFunction,Plated,1,2,PTH
FMAT,2
METRIC
T1C0.300
T2C0.400
T3C0.650
T4C0.700
T5C0.750
T6C3.800
%
G90
G05
T1
X108.458Y-66.548
X108.458Y-98.298
X108.458Y-130.048
X110.903Y-66.961
X110.903Y-98.711
X110.903Y-130.461
X110.998Y-63.754
X110.998Y-95.504
X110.998Y-127.254
X111.442Y-61.277
X111.442Y-66.23
X111.442Y-93.027
X111.442Y-97.98
X111.442Y-124.777
X111.442Y-129.731
X111.698Y-64.549
X111.698Y-96.299
X111.698Y-128.049
X111.798Y-63.766
X111.798Y-95.516
X111.798Y-127.266
X112.105Y-60.966
X112.105Y-92.716
X112.105Y-124.466
X112.268Y-67.818
X112.268Y-99.568
X112.268Y-131.318
X112.277Y-66.257
X112.277Y-98.007
X112.277Y-129.757
X112.585Y-60.389
X112.585Y-92.138
X112.585Y-123.888
X112.649Y-64.222
X112.649Y-95.972
X112.649Y-127.722
X113.376Y-64.198
X113.376Y-95.948
X113.376Y-127.698
X113.417Y-66.294
X113.417Y-98.044
X113.417Y-129.794
X113.928Y-60.189
X113.928Y-91.939
X113.928Y-123.689
X114.669Y-60.185
X114.669Y-91.935
X114.669Y-123.685
X115.348Y-65.246
X115.348Y-96.996
X115.348Y-128.746
X115.674Y-63.893
X115.674Y-95.643
X115.674Y-127.393
X116.37Y-64.161
X116.37Y-95.911
X116.37Y-127.661
X116.586Y-57.023
X116.586Y-88.773
X116.586Y-120.523
X117.151Y-65.04
X117.151Y-96.79
X117.151Y-128.54
X117.348Y-58.039
X117.348Y-67.691
X117.348Y-89.789
X117.348Y-99.441
X117.348Y-121.539
X117.348Y-131.191
X117.729Y-61.15
X117.729Y-70.104
X117.729Y-92.9
X117.729Y-101.854
X117.729Y-124.65
X117.729Y-133.604
X117.798Y-64.57
X117.798Y-96.32
X117.798Y-128.07
X118.561Y-64.24
X118.561Y-95.99
X118.561Y-127.74
X118.583Y-61.109
X118.583Y-92.859
X118.583Y-124.609
X119.38Y-58.039
X119.38Y-60.086
X119.38Y-89.789
X119.38Y-91.836
X119.38Y-121.539
X119.38Y-123.586
X119.507Y-54.102
X119.507Y-85.852
X119.507Y-117.602
X119.546Y-61.109
X119.546Y-92.859
X119.546Y-124.609
X119.761Y-51.562
X119.761Y-83.312
X119.761Y-115.062
X120.015Y-48.641
X120.015Y-80.391
X120.015Y-112.141
X120.269Y-66.802
X120.269Y-98.552
X120.269Y-130.302
X121.539Y-43.434
X121.539Y-51.816
X121.539Y-75.184
X121.539Y-83.566
X121.539Y-106.934
X121.539Y-115.316
X122.364Y-53.023
X122.364Y-84.772
X122.364Y-116.522
X122.428Y-46.482
X122.428Y-78.232
X122.428Y-109.982
X124.714Y-66.548
X124.714Y-98.298
X124.714Y-130.048
X125.984Y-44.704
X125.984Y-76.454
X125.984Y-108.204
X126.23Y-66.516
X126.23Y-98.266
X126.23Y-130.016
X128.016Y-65.278
X128.016Y-97.028
X128.016Y-128.778
X128.5Y-56.388
X128.5Y-88.138
X128.5Y-119.888
X131.318Y-63.246
X131.318Y-94.996
X131.318Y-126.746
X163.068Y-66.548
X163.068Y-98.298
X163.068Y-130.048
X165.513Y-66.961
X165.513Y-98.711
X165.513Y-130.461
X165.608Y-63.754
X165.608Y-95.504
X165.608Y-127.254
X166.052Y-61.277
X166.052Y-66.23
X166.052Y-93.027
X166.052Y-97.98
X166.052Y-124.777
X166.052Y-129.731
X166.308Y-64.549
X166.308Y-96.299
X166.308Y-128.049
X166.408Y-63.766
X166.408Y-95.516
X166.408Y-127.266
X166.715Y-60.966
X166.715Y-92.716
X166.715Y-124.466
X166.878Y-67.818
X166.878Y-99.568
X166.878Y-131.318
X166.887Y-66.257
X166.887Y-98.007
X166.887Y-129.757
X167.195Y-60.389
X167.195Y-92.138
X167.195Y-123.888
X167.259Y-64.222
X167.259Y-95.972
X167.259Y-127.722
X167.986Y-64.198
X167.986Y-95.948
X167.986Y-127.698
X168.027Y-66.294
X168.027Y-98.044
X168.027Y-129.794
X168.538Y-60.189
X168.538Y-91.939
X168.538Y-123.689
X169.279Y-60.185
X169.279Y-91.935
X169.279Y-123.685
X169.958Y-65.246
X169.958Y-96.996
X169.958Y-128.746
X170.284Y-63.893
X170.284Y-95.643
X170.284Y-127.393
X170.98Y-64.161
X170.98Y-95.911
X170.98Y-127.661
X171.196Y-57.023
X171.196Y-88.773
X171.196Y-120.523
X171.761Y-65.04
X171.761Y-96.79
X171.761Y-128.54
X171.958Y-58.039
X171.958Y-67.691
X171.958Y-89.789
X171.958Y-99.441
X171.958Y-121.539
X171.958Y-131.191
X172.339Y-61.15
X172.339Y-70.104
X172.339Y-92.9
X172.339Y-101.854
X172.339Y-124.65
X172.339Y-133.604
X172.408Y-64.57
X172.408Y-96.32
X172.408Y-128.07
X173.171Y-64.24
X173.171Y-95.99
X173.171Y-127.74
X173.193Y-61.109
X173.193Y-92.859
X173.193Y-124.609
X173.99Y-58.039
X173.99Y-60.086
X173.99Y-89.789
X173.99Y-91.836
X173.99Y-121.539
X173.99Y-123.586
X174.117Y-54.102
X174.117Y-85.852
X174.117Y-117.602
X174.156Y-61.109
X174.156Y-92.859
X174.156Y-124.609
X174.371Y-51.562
X174.371Y-83.312
X174.371Y-115.062
X174.625Y-48.641
X174.625Y-80.391
X174.625Y-112.141
X174.879Y-66.802
X174.879Y-98.552
X174.879Y-130.302
X176.149Y-43.434
X176.149Y-51.816
X176.149Y-75.184
X176.149Y-83.566
X176.149Y-106.934
X176.149Y-115.316
X176.975Y-53.023
X176.975Y-84.772
X176.975Y-116.522
X177.038Y-46.482
X177.038Y-78.232
X177.038Y-109.982
X179.324Y-66.548
X179.324Y-98.298
X179.324Y-130.048
X180.594Y-44.704
X180.594Y-76.454
X180.594Y-108.204
X180.84Y-66.516
X180.84Y-98.266
X180.84Y-130.016
X182.626Y-65.278
X182.626Y-97.028
X182.626Y-128.778
X183.11Y-56.388
X183.11Y-88.138
X183.11Y-119.888
X185.928Y-63.246
X185.928Y-94.996
X185.928Y-126.746
T2
X138.684Y-54.102
X138.684Y-85.852
X138.684Y-117.602
X139.109Y-45.613
X139.109Y-77.363
X139.109Y-109.113
X140.084Y-44.447
X140.084Y-76.197
X140.084Y-107.947
X152.654Y-54.102
X152.654Y-85.852
X152.654Y-117.602
X153.797Y-45.593
X153.797Y-77.343
X153.797Y-109.093
X155.245Y-44.933
X155.245Y-76.683
X155.245Y-108.433
T3
X107.949Y-43.18
X107.949Y-44.45
X107.949Y-45.72
X107.949Y-46.99
X107.949Y-48.26
X107.949Y-49.53
X107.949Y-50.8
X107.949Y-52.07
X107.949Y-53.34
X107.949Y-54.61
X107.949Y-55.88
X107.949Y-57.15
X107.949Y-58.42
X107.949Y-59.69
X107.949Y-60.96
X132.079Y-43.18
X132.079Y-44.45
X132.079Y-45.72
X132.079Y-46.99
X132.079Y-48.26
X132.079Y-49.53
X132.079Y-50.8
X132.079Y-52.07
X132.079Y-53.34
X132.079Y-54.61
X132.079Y-55.88
X132.079Y-57.15
X132.079Y-58.42
X132.079Y-59.69
X132.079Y-60.96
X162.559Y-106.68
X162.559Y-107.95
X162.559Y-109.22
X162.559Y-110.49
X162.559Y-111.76
X162.559Y-113.03
X162.559Y-114.3
X162.559Y-115.57
X162.559Y-116.84
X162.559Y-118.11
X162.559Y-119.38
X162.559Y-120.65
X162.559Y-121.92
X162.559Y-123.19
X162.559Y-124.46
X186.689Y-106.68
X186.689Y-107.95
X186.689Y-109.22
X186.689Y-110.49
X186.689Y-111.76
X186.689Y-113.03
X186.689Y-114.3
X186.689Y-115.57
X186.689Y-116.84
X186.689Y-118.11
X186.689Y-119.38
X186.689Y-120.65
X186.689Y-121.92
X186.689Y-123.19
X186.689Y-124.46
X137.16Y-106.68
X137.16Y-107.95
X137.16Y-109.22
X137.16Y-110.49
X137.16Y-111.76
X137.16Y-113.03
X137.16Y-114.3
X137.16Y-115.57
X137.16Y-116.84
X137.16Y-118.11
X137.16Y-119.38
X137.16Y-120.65
X137.16Y-121.92
X137.16Y-123.19
X137.16Y-124.46
X157.48Y-106.68
X157.48Y-107.95
X157.48Y-109.22
X157.48Y-110.49
X157.48Y-111.76
X157.48Y-113.03
X157.48Y-114.3
X157.48Y-115.57
X157.48Y-116.84
X157.48Y-118.11
X157.48Y-119.38
X157.48Y-120.65
X157.48Y-121.92
X157.48Y-123.19
X157.48Y-124.46
X109.855Y-74.93
X109.855Y-76.2
X109.855Y-77.47
X109.855Y-78.74
X109.855Y-80.01
X109.855Y-81.28
X109.855Y-82.55
X109.855Y-83.82
X109.855Y-85.09
X109.855Y-86.36
X109.855Y-87.63
X109.855Y-88.9
X109.855Y-90.17
X109.855Y-91.44
X109.855Y-92.71
X130.175Y-74.93
X130.175Y-76.2
X130.175Y-77.47
X130.175Y-78.74
X130.175Y-80.01
X130.175Y-81.28
X130.175Y-82.55
X130.175Y-83.82
X130.175Y-85.09
X130.175Y-86.36
X130.175Y-87.63
X130.175Y-88.9
X130.175Y-90.17
X130.175Y-91.44
X130.175Y-92.71
X107.949Y-106.68
X107.949Y-107.95
X107.949Y-109.22
X107.949Y-110.49
X107.949Y-111.76
X107.949Y-113.03
X107.949Y-114.3
X107.949Y-115.57
X107.949Y-116.84
X107.949Y-118.11
X107.949Y-119.38
X107.949Y-120.65
X107.949Y-121.92
X107.949Y-123.19
X107.949Y-124.46
X132.079Y-106.68
X132.079Y-107.95
X132.079Y-109.22
X132.079Y-110.49
X132.079Y-111.76
X132.079Y-113.03
X132.079Y-114.3
X132.079Y-115.57
X132.079Y-116.84
X132.079Y-118.11
X132.079Y-119.38
X132.079Y-120.65
X132.079Y-121.92
X132.079Y-123.19
X132.079Y-124.46
X109.855Y-43.18
X109.855Y-44.45
X109.855Y-45.72
X109.855Y-46.99
X109.855Y-48.26
X109.855Y-49.53
X109.855Y-50.8
X109.855Y-52.07
X109.855Y-53.34
X109.855Y-54.61
X109.855Y-55.88
X109.855Y-57.15
X109.855Y-58.42
X109.855Y-59.69
X109.855Y-60.96
X130.175Y-43.18
X130.175Y-44.45
X130.175Y-45.72
X130.175Y-46.99
X130.175Y-48.26
X130.175Y-49.53
X130.175Y-50.8
X130.175Y-52.07
X130.175Y-53.34
X130.175Y-54.61
X130.175Y-55.88
X130.175Y-57.15
X130.175Y-58.42
X130.175Y-59.69
X130.175Y-60.96
X164.465Y-74.93
X164.465Y-76.2
X164.465Y-77.47
X164.465Y-78.74
X164.465Y-80.01
X164.465Y-81.28
X164.465Y-82.55
X164.465Y-83.82
X164.465Y-85.09
X164.465Y-86.36
X164.465Y-87.63
X164.465Y-88.9
X164.465Y-90.17
X164.465Y-91.44
X164.465Y-92.71
X184.785Y-74.93
X184.785Y-76.2
X184.785Y-77.47
X184.785Y-78.74
X184.785Y-80.01
X184.785Y-81.28
X184.785Y-82.55
X184.785Y-83.82
X184.785Y-85.09
X184.785Y-86.36
X184.785Y-87.63
X184.785Y-88.9
X184.785Y-90.17
X184.785Y-91.44
X184.785Y-92.71
X137.16Y-43.18
X137.16Y-44.45
X137.16Y-45.72
X137.16Y-46.99
X137.16Y-48.26
X137.16Y-49.53
X137.16Y-50.8
X137.16Y-52.07
X137.16Y-53.34
X137.16Y-54.61
X137.16Y-55.88
X137.16Y-57.15
X137.16Y-58.42
X137.16Y-59.69
X137.16Y-60.96
X157.48Y-43.18
X157.48Y-44.45
X157.48Y-45.72
X157.48Y-46.99
X157.48Y-48.26
X157.48Y-49.53
X157.48Y-50.8
X157.48Y-52.07
X157.48Y-53.34
X157.48Y-54.61
X157.48Y-55.88
X157.48Y-57.15
X157.48Y-58.42
X157.48Y-59.69
X157.48Y-60.96
X164.465Y-106.68
X164.465Y-107.95
X164.465Y-109.22
X164.465Y-110.49
X164.465Y-111.76
X164.465Y-113.03
X164.465Y-114.3
X164.465Y-115.57
X164.465Y-116.84
X164.465Y-118.11
X164.465Y-119.38
X164.465Y-120.65
X164.465Y-121.92
X164.465Y-123.19
X164.465Y-124.46
X184.785Y-106.68
X184.785Y-107.95
X184.785Y-109.22
X184.785Y-110.49
X184.785Y-111.76
X184.785Y-113.03
X184.785Y-114.3
X184.785Y-115.57
X184.785Y-116.84
X184.785Y-118.11
X184.785Y-119.38
X184.785Y-120.65
X184.785Y-121.92
X184.785Y-123.19
X184.785Y-124.46
X162.559Y-43.18
X162.559Y-44.45
X162.559Y-45.72
X162.559Y-46.99
X162.559Y-48.26
X162.559Y-49.53
X162.559Y-50.8
X162.559Y-52.07
X162.559Y-53.34
X162.559Y-54.61
X162.559Y-55.88
X162.559Y-57.15
X162.559Y-58.42
X162.559Y-59.69
X162.559Y-60.96
X186.689Y-43.18
X186.689Y-44.45
X186.689Y-45.72
X186.689Y-46.99
X186.689Y-48.26
X186.689Y-49.53
X186.689Y-50.8
X186.689Y-52.07
X186.689Y-53.34
X186.689Y-54.61
X186.689Y-55.88
X186.689Y-57.15
X186.689Y-58.42
X186.689Y-59.69
X186.689Y-60.96
X107.949Y-74.93
X107.949Y-76.2
X107.949Y-77.47
X107.949Y-78.74
X107.949Y-80.01
X107.949Y-81.28
X107.949Y-82.55
X107.949Y-83.82
X107.949Y-85.09
X107.949Y-86.36
X107.949Y-87.63
X107.949Y-88.9
X107.949Y-90.17
X107.949Y-91.44
X107.949Y-92.71
X132.079Y-74.93
X132.079Y-76.2
X132.079Y-77.47
X132.079Y-78.74
X132.079Y-80.01
X132.079Y-81.28
X132.079Y-82.55
X132.079Y-83.82
X132.079Y-85.09
X132.079Y-86.36
X132.079Y-87.63
X132.079Y-88.9
X132.079Y-90.17
X132.079Y-91.44
X132.079Y-92.71
X109.855Y-106.68
X109.855Y-107.95
X109.855Y-109.22
X109.855Y-110.49
X109.855Y-111.76
X109.855Y-113.03
X109.855Y-114.3
X109.855Y-115.57
X109.855Y-116.84
X109.855Y-118.11
X109.855Y-119.38
X109.855Y-120.65
X109.855Y-121.92
X109.855Y-123.19
X109.855Y-124.46
X130.175Y-106.68
X130.175Y-107.95
X130.175Y-109.22
X130.175Y-110.49
X130.175Y-111.76
X130.175Y-113.03
X130.175Y-114.3
X130.175Y-115.57
X130.175Y-116.84
X130.175Y-118.11
X130.175Y-119.38
X130.175Y-120.65
X130.175Y-121.92
X130.175Y-123.19
X130.175Y-124.46
X162.559Y-74.93
X162.559Y-76.2
X162.559Y-77.47
X162.559Y-78.74
X162.559Y-80.01
X162.559Y-81.28
X162.559Y-82.55
X162.559Y-83.82
X162.559Y-85.09
X162.559Y-86.36
X162.559Y-87.63
X162.559Y-88.9
X162.559Y-90.17
X162.559Y-91.44
X162.559Y-92.71
X186.689Y-74.93
X186.689Y-76.2
X186.689Y-77.47
X186.689Y-78.74
X186.689Y-80.01
X186.689Y-81.28
X186.689Y-82.55
X186.689Y-83.82
X186.689Y-85.09
X186.689Y-86.36
X186.689Y-87.63
X186.689Y-88.9
X186.689Y-90.17
X186.689Y-91.44
X186.689Y-92.71
X137.16Y-74.93
X137.16Y-76.2
X137.16Y-77.47
X137.16Y-78.74
X137.16Y-80.01
X137.16Y-81.28
X137.16Y-82.55
X137.16Y-83.82
X137.16Y-85.09
X137.16Y-86.36
X137.16Y-87.63
X137.16Y-88.9
X137.16Y-90.17
X137.16Y-91.44
X137.16Y-92.71
X157.48Y-74.93
X157.48Y-76.2
X157.48Y-77.47
X157.48Y-78.74
X157.48Y-80.01
X157.48Y-81.28
X157.48Y-82.55
X157.48Y-83.82
X157.48Y-85.09
X157.48Y-86.36
X157.48Y-87.63
X157.48Y-88.9
X157.48Y-90.17
X157.48Y-91.44
X157.48Y-92.71
X164.465Y-43.18
X164.465Y-44.45
X164.465Y-45.72
X164.465Y-46.99
X164.465Y-48.26
X164.465Y-49.53
X164.465Y-50.8
X164.465Y-52.07
X164.465Y-53.34
X164.465Y-54.61
X164.465Y-55.88
X164.465Y-57.15
X164.465Y-58.42
X164.465Y-59.69
X164.465Y-60.96
X184.785Y-43.18
X184.785Y-44.45
X184.785Y-45.72
X184.785Y-46.99
X184.785Y-48.26
X184.785Y-49.53
X184.785Y-50.8
X184.785Y-52.07
X184.785Y-53.34
X184.785Y-54.61
X184.785Y-55.88
X184.785Y-57.15
X184.785Y-58.42
X184.785Y-59.69
X184.785Y-60.96
T4
X154.244Y-128.209
X154.244Y-130.109
X156.144Y-128.209
X156.144Y-130.109
X138.496Y-96.47
X138.496Y-98.37
X140.396Y-96.47
X140.396Y-98.37
X138.496Y-64.72
X138.496Y-66.62
X140.396Y-64.72
X140.396Y-66.62
X138.496Y-128.22
X138.496Y-130.12
X140.396Y-128.22
X140.396Y-130.12
X154.244Y-96.459
X154.244Y-98.359
X156.144Y-96.459
X156.144Y-98.359
X154.244Y-64.709
X154.244Y-66.609
X156.144Y-64.709
X156.144Y-66.609
T5
X125.0Y-120.523
X127.0Y-120.523
X125.0Y-57.023
X127.0Y-57.023
X125.0Y-88.773
X127.0Y-88.773
X179.61Y-88.773
X181.61Y-88.773
X179.61Y-57.023
X181.61Y-57.023
X179.61Y-120.523
X181.61Y-120.523
T6
X116.208Y-44.798
X170.818Y-44.798
X170.818Y-108.298
X116.208Y-108.298
X116.208Y-76.548
X170.818Y-76.548
T0
M30
