M48
; DRILL file {KiCad (5.1.2)-2} date 3/31/2021 4:35:05 PM
; FORMAT={-:-/ absolute / metric / decimal}
; #@! TF.CreationDate,2021-03-31T16:35:05-04:00
; #@! TF.GenerationSoftware,Kicad,Pcbnew,(5.1.2)-2
; #@! TF.FileFunction,NonPlated,1,2,NPTH
FMAT,2
METRIC
T1C0.500
T2C1.100
T3C1.600
T4C2.200
T5C2.500
%
G90
G05
T1
X133.52Y-87.465
X133.52Y-88.265
X133.52Y-89.065
X135.72Y-87.465
X135.72Y-88.265
X135.72Y-89.065
X158.92Y-55.715
X158.92Y-56.515
X158.92Y-57.315
X161.12Y-55.715
X161.12Y-56.515
X161.12Y-57.315
X104.31Y-55.715
X104.31Y-56.515
X104.31Y-57.315
X106.51Y-55.715
X106.51Y-56.515
X106.51Y-57.315
X158.92Y-87.465
X158.92Y-88.265
X158.92Y-89.065
X161.12Y-87.465
X161.12Y-88.265
X161.12Y-89.065
X104.31Y-119.215
X104.31Y-120.015
X104.31Y-120.815
X106.51Y-119.215
X106.51Y-120.015
X106.51Y-120.815
X188.13Y-55.715
X188.13Y-56.515
X188.13Y-57.315
X190.33Y-55.715
X190.33Y-56.515
X190.33Y-57.315
X158.92Y-119.215
X158.92Y-120.015
X158.92Y-120.815
X161.12Y-119.215
X161.12Y-120.015
X161.12Y-120.815
X133.52Y-119.215
X133.52Y-120.015
X133.52Y-120.815
X135.72Y-119.215
X135.72Y-120.015
X135.72Y-120.815
X104.31Y-87.465
X104.31Y-88.265
X104.31Y-89.065
X106.51Y-87.465
X106.51Y-88.265
X106.51Y-89.065
X188.13Y-119.215
X188.13Y-120.015
X188.13Y-120.815
X190.33Y-119.215
X190.33Y-120.015
X190.33Y-120.815
X133.52Y-55.715
X133.52Y-56.515
X133.52Y-57.315
X135.72Y-55.715
X135.72Y-56.515
X135.72Y-57.315
X188.13Y-87.465
X188.13Y-88.265
X188.13Y-89.065
X190.33Y-87.465
X190.33Y-88.265
X190.33Y-89.065
T2
X164.624Y-64.77
X164.624Y-96.52
X164.624Y-128.27
X110.014Y-96.52
X110.014Y-128.27
X110.014Y-64.77
T3
X144.567Y-46.99
X150.068Y-46.99
X130.014Y-64.77
X184.624Y-64.77
X184.624Y-96.52
X184.624Y-128.27
X144.567Y-78.74
X150.068Y-78.74
X130.014Y-96.52
X130.014Y-128.27
X144.567Y-110.49
X150.068Y-110.49
T4
X193.675Y-45.085
X100.965Y-131.445
X100.965Y-45.085
X193.675Y-131.445
T5
X147.32Y-110.49
X147.32Y-46.99
X147.32Y-78.74
T0
M30
